<?xml version="1.0" encoding="UTF-8" ?>
<!DOCTYPE svg PUBLIC "-//W3C//DTD SVG 1.1//EN" "http://www.w3.org/Graphics/SVG/1.1/DTD/svg11.dtd">
<svg width="1022pt" height="1022pt" viewBox="0 0 1022 1022" version="1.1" xmlns="http://www.w3.org/2000/svg">
<g id="#ffffffff">
</g>
<g id="#1a323eff">
<path fill="#1a323e" opacity="1.00" d=" M 456.67 146.98 C 456.46 142.52 460.40 138.19 464.97 138.53 C 489.99 138.52 515.01 138.51 540.03 138.53 C 544.58 138.22 548.46 142.58 548.34 146.98 C 548.34 157.12 548.34 167.27 548.34 177.41 C 562.57 177.37 576.80 177.40 591.03 177.40 C 595.66 176.90 600.02 181.36 599.53 185.95 C 599.45 197.70 599.66 209.45 599.42 221.19 C 617.93 221.49 636.45 221.15 654.96 221.36 C 658.96 221.29 662.85 224.83 662.58 228.95 C 662.60 271.95 662.64 314.95 662.56 357.96 C 612.68 336.94 562.81 315.91 512.96 294.84 C 509.50 293.33 505.79 292.26 501.99 292.47 C 496.90 292.35 492.28 294.70 487.72 296.64 C 439.28 317.06 390.85 337.51 342.39 357.87 C 342.27 314.89 342.35 271.91 342.35 228.93 C 342.03 224.74 345.99 221.22 350.04 221.34 C 368.53 221.12 387.04 221.60 405.52 221.10 C 405.28 209.39 405.48 197.67 405.42 185.95 C 404.93 181.61 408.57 177.20 413.06 177.42 C 427.59 177.38 442.12 177.35 456.65 177.45 C 456.65 167.29 456.63 157.13 456.67 146.98 M 372.58 260.65 C 368.37 263.02 370.09 270.61 375.04 270.64 C 389.03 270.85 403.04 270.69 417.04 270.72 C 419.36 270.89 421.76 269.89 422.75 267.68 C 425.05 264.01 421.05 259.30 417.09 259.71 C 404.39 259.62 391.68 259.71 378.98 259.66 C 376.83 259.72 374.49 259.43 372.58 260.65 M 478.53 260.58 C 473.75 263.01 475.77 270.71 481.04 270.66 C 494.04 270.85 507.04 270.66 520.04 270.75 C 522.71 270.70 525.87 271.11 527.77 268.78 C 530.20 265.62 528.44 259.85 523.95 259.77 C 510.96 259.53 497.97 259.78 484.98 259.65 C 482.81 259.69 480.48 259.42 478.53 260.58 M 585.28 260.17 C 583.02 261.02 581.18 263.44 581.54 265.92 C 582.00 268.49 584.25 270.90 587.04 270.68 C 600.38 270.82 613.73 270.68 627.08 270.74 C 629.16 270.64 631.68 270.97 633.12 269.09 C 636.74 265.93 633.78 259.39 629.04 259.72 C 616.01 259.60 602.98 259.74 589.95 259.65 C 588.39 259.72 586.74 259.53 585.28 260.17 Z" />
<path fill="#1a323e" opacity="1.00" d=" M 237.19 414.16 C 323.12 377.91 409.08 341.73 495.01 305.49 C 495.28 305.75 495.83 306.27 496.11 306.53 C 497.23 325.79 499.46 344.96 500.73 364.22 C 501.60 369.24 501.23 374.40 502.40 379.37 C 504.31 370.37 504.01 361.05 505.25 351.95 C 505.91 341.53 507.14 331.18 507.81 320.77 C 508.87 315.59 508.03 310.21 509.53 305.11 C 525.87 312.55 542.61 319.11 559.09 326.25 C 630.36 356.28 701.63 386.31 772.91 416.33 C 779.62 418.75 783.58 426.79 780.74 433.49 C 750.52 509.38 720.57 585.39 690.14 661.18 C 683.88 662.34 676.73 662.41 671.25 658.67 C 664.38 654.12 658.03 648.70 650.45 645.30 C 635.66 638.67 618.43 637.82 603.00 642.69 C 594.92 645.25 587.65 649.79 580.94 654.87 C 576.78 657.91 572.41 661.47 567.01 661.66 C 562.26 661.76 557.13 662.41 552.81 660.01 C 546.38 656.73 541.16 651.56 534.84 648.09 C 517.41 637.96 495.16 636.86 476.67 644.75 C 470.42 647.39 464.80 651.26 459.39 655.31 C 455.84 657.86 452.18 660.66 447.79 661.49 C 443.95 661.92 440.04 661.89 436.20 661.51 C 432.31 660.78 428.92 658.53 425.77 656.24 C 419.94 651.88 413.97 647.56 407.23 644.72 C 391.44 638.08 373.05 637.80 357.12 644.17 C 350.09 646.91 343.86 651.27 337.85 655.75 C 334.71 658.05 331.43 660.39 327.60 661.34 C 323.32 662.20 318.96 661.51 314.64 661.61 C 284.64 585.23 254.07 509.07 223.96 432.73 C 222.85 428.79 223.21 424.21 225.90 420.97 C 228.56 417.20 233.16 415.88 237.19 414.16 M 452.58 377.64 C 449.03 379.30 446.38 383.01 446.43 386.98 C 445.96 392.64 451.36 398.03 457.01 397.64 C 463.02 397.88 468.09 391.87 467.45 386.02 C 466.63 379.52 458.65 374.26 452.58 377.64 M 545.27 376.99 C 541.92 378.09 539.21 380.83 537.95 384.10 C 535.69 390.41 541.26 398.04 548.01 397.63 C 553.32 397.89 558.27 393.23 558.55 387.96 C 559.18 381.23 551.81 374.92 545.27 376.99 M 492.33 428.13 C 470.36 430.52 449.43 441.30 434.77 457.84 C 422.41 471.26 414.49 488.60 411.99 506.65 C 410.08 522.28 411.82 538.44 417.87 553.03 C 424.90 570.46 437.53 585.50 453.32 595.64 C 478.05 611.89 510.81 614.59 537.94 602.88 C 557.83 594.46 574.51 578.72 584.15 559.40 C 592.87 542.14 595.66 522.03 592.32 503.02 C 587.60 475.10 568.78 450.24 543.62 437.45 C 527.92 429.50 509.83 426.03 492.33 428.13 Z" />
<path fill="#1a323e" opacity="1.00" d=" M 493.34 445.04 C 510.69 442.77 528.76 447.15 543.34 456.78 C 556.92 465.53 567.24 479.00 572.57 494.21 C 581.98 520.38 575.15 551.69 555.13 571.13 C 534.85 592.28 501.44 598.97 474.47 587.65 C 455.54 580.08 440.18 564.26 432.99 545.20 C 428.36 533.14 427.28 519.89 429.11 507.15 C 431.45 491.65 439.07 477.17 450.04 466.05 C 461.68 454.59 477.09 447.00 493.34 445.04 M 504.09 486.15 C 495.32 499.54 485.79 512.47 477.60 526.23 C 485.44 526.34 493.28 526.24 501.13 526.32 C 498.02 541.16 492.15 555.34 489.15 570.20 C 494.24 563.46 498.43 556.11 503.25 549.18 C 511.19 536.60 519.96 524.53 527.40 511.66 C 519.21 511.67 511.02 511.77 502.84 511.64 C 507.00 496.86 513.05 482.65 516.94 467.81 C 512.00 473.44 508.40 480.06 504.09 486.15 Z" />
<path fill="#1a323e" opacity="1.00" d=" M 253.34 651.05 C 265.97 649.41 279.33 652.00 290.00 659.12 C 296.05 662.89 301.28 668.02 307.95 670.74 C 314.14 673.42 321.06 672.86 327.63 672.51 C 336.74 671.37 343.52 664.72 350.88 659.90 C 368.50 647.55 393.74 647.44 411.53 659.51 C 417.43 663.26 422.59 668.24 429.15 670.89 C 435.06 673.39 441.64 672.79 447.90 672.59 C 457.03 671.78 463.99 665.27 471.20 660.31 C 489.28 647.25 515.63 647.35 533.74 660.32 C 540.93 665.26 547.88 671.82 557.00 672.59 C 563.10 672.77 569.50 673.38 575.29 671.01 C 581.82 668.51 586.98 663.63 592.78 659.88 C 610.84 647.26 636.85 647.46 654.71 660.38 C 660.25 664.13 665.31 668.83 671.71 671.09 C 677.47 673.42 683.84 672.74 689.90 672.56 C 699.29 671.69 706.35 664.92 713.77 659.85 C 731.63 647.40 757.27 647.43 775.06 659.99 C 781.10 663.89 786.49 669.03 793.42 671.38 C 798.27 673.20 803.59 672.38 808.54 673.78 C 813.19 675.37 815.63 681.22 814.03 685.75 C 812.54 689.79 808.29 692.50 804.02 692.39 C 794.37 692.07 784.64 689.66 776.43 684.45 C 769.85 680.51 764.31 674.85 757.09 672.04 C 748.09 668.69 737.75 668.97 729.06 673.13 C 723.72 675.82 719.27 679.90 714.29 683.14 C 698.97 693.74 678.07 695.19 661.19 687.54 C 654.32 684.53 648.68 679.49 642.48 675.38 C 633.71 669.46 622.26 668.34 612.26 671.46 C 603.10 674.40 596.58 682.02 588.11 686.26 C 573.02 694.16 554.16 694.33 538.87 686.89 C 530.27 682.82 523.73 675.33 514.78 671.90 C 504.54 668.24 492.49 669.19 483.39 675.34 C 477.04 679.60 471.18 684.71 464.11 687.79 C 448.44 694.60 429.48 693.83 414.69 685.13 C 407.79 681.19 402.10 675.29 394.68 672.25 C 384.66 668.28 372.75 668.98 363.52 674.68 C 357.19 678.54 351.67 683.68 344.96 686.94 C 332.08 693.18 316.78 694.05 303.25 689.47 C 294.55 686.84 287.53 680.83 280.20 675.74 C 270.53 669.03 257.44 667.96 246.65 672.52 C 239.78 675.62 234.32 681.00 227.87 684.82 C 219.83 689.80 210.34 692.06 200.96 692.38 C 196.38 692.58 191.96 689.42 190.65 685.03 C 189.74 680.59 191.98 675.26 196.46 673.76 C 201.41 672.42 206.71 673.14 211.55 671.33 C 219.41 668.65 225.34 662.52 232.36 658.34 C 238.67 654.31 245.92 651.91 253.34 651.05 Z" />
<path fill="#1a323e" opacity="1.00" d=" M 737.66 719.09 C 748.95 717.66 760.78 719.79 770.73 725.39 C 778.17 729.35 784.07 735.83 792.00 738.94 C 796.41 740.79 801.26 740.78 805.94 741.37 C 812.02 741.57 816.47 749.10 813.71 754.55 C 812.09 758.24 808.07 760.62 804.07 760.42 C 793.36 760.38 782.70 757.07 773.93 750.91 C 766.48 745.90 759.40 739.09 749.98 738.39 C 744.03 738.24 737.80 737.63 732.15 739.92 C 725.46 742.37 720.22 747.35 714.37 751.21 C 696.61 763.47 671.30 763.57 653.52 751.31 C 647.72 747.54 642.58 742.61 636.03 740.09 C 630.04 737.59 623.40 738.22 617.09 738.45 C 608.01 739.43 601.11 745.94 593.91 750.88 C 576.47 763.16 551.61 763.69 533.71 752.07 C 525.74 747.08 518.69 739.59 508.90 738.46 C 502.63 738.25 496.03 737.54 490.09 739.99 C 482.96 742.65 477.48 748.14 471.09 752.08 C 453.24 763.66 428.39 763.21 411.02 750.90 C 403.81 745.99 396.95 739.49 387.90 738.46 C 381.39 738.25 374.49 737.49 368.38 740.28 C 361.82 742.92 356.71 747.97 350.80 751.69 C 333.68 763.04 309.95 763.40 292.53 752.52 C 284.65 747.72 277.89 740.50 268.51 738.67 C 263.74 738.05 258.89 738.15 254.10 738.46 C 246.07 739.38 239.66 744.71 233.33 749.26 C 226.57 754.35 218.71 758.10 210.32 759.49 C 205.98 760.21 201.40 761.01 197.07 759.88 C 191.13 758.08 188.39 750.14 192.30 745.18 C 195.30 740.16 201.79 741.56 206.66 740.56 C 217.31 739.34 224.65 730.75 233.53 725.74 C 247.90 717.36 266.13 716.55 281.47 722.69 C 288.69 725.57 294.68 730.58 300.97 735.01 C 312.59 743.37 329.51 743.32 341.13 734.96 C 347.61 730.40 353.82 725.24 361.31 722.38 C 377.60 716.17 396.99 717.71 411.53 727.60 C 418.84 732.42 425.52 739.10 434.54 740.47 C 440.98 741.96 447.75 741.28 453.99 739.21 C 460.96 736.74 466.40 731.53 472.49 727.54 C 488.50 716.72 510.42 715.83 527.51 724.67 C 535.34 728.58 541.46 735.24 549.54 738.72 C 560.35 743.03 573.33 741.81 582.90 735.07 C 589.23 730.63 595.27 725.55 602.55 722.67 C 618.93 716.05 638.64 717.63 653.38 727.57 C 659.08 731.29 664.16 736.08 670.51 738.72 C 676.61 741.49 683.50 740.81 690.01 740.60 C 698.88 739.80 705.69 733.59 712.65 728.70 C 720.00 723.44 728.64 719.99 737.66 719.09 Z" />
<path fill="#1a323e" opacity="1.00" d=" M 994.00 1021.00 C 1003.35 1020.85 1012.77 1021.62 1022.00 1019.73 L 1022.00 1022.00 L 516.91 1022.00 C 520.38 1020.32 524.30 1021.13 528.00 1020.98 C 683.34 1021.02 838.67 1020.99 994.00 1021.00 Z" />
<path fill="#1a323e" opacity="1.00" d=" M 0.00 1021.00 C 167.67 1020.99 335.33 1021.02 503.00 1020.98 C 506.68 1021.13 510.58 1020.31 514.03 1022.00 L 0.00 1022.00 L 0.00 1021.00 Z" />
</g>
</svg>
