<?xml version="1.0" encoding="UTF-8" ?>
<!DOCTYPE svg PUBLIC "-//W3C//DTD SVG 1.1//EN" "http://www.w3.org/Graphics/SVG/1.1/DTD/svg11.dtd">
<svg width="449pt" height="491pt" viewBox="0 0 449 491" version="1.1" xmlns="http://www.w3.org/2000/svg">
<g id="#ffffffff">
</g>
<g id="#3bb2faff">
<path fill="#3bb2fa" opacity="1.00" d=" M 38.53 135.53 C 100.93 99.23 163.54 63.26 226.00 27.05 C 288.15 63.06 350.40 98.90 412.54 134.93 C 407.42 138.51 401.93 141.52 396.57 144.70 C 363.99 163.75 331.67 183.27 298.99 202.13 C 274.65 188.08 250.33 174.00 225.99 159.96 C 202.57 173.58 178.97 186.93 155.65 200.72 C 122.53 182.41 89.65 163.64 56.58 145.25 C 50.47 142.19 44.97 137.90 38.53 135.53 Z" />
</g>
<g id="#000000ff">
</g>
<g id="#6b57ffff">
<path fill="#6b57ff" opacity="1.00" d=" M 379.54 160.58 C 391.61 153.15 404.11 146.44 415.99 138.70 C 415.91 139.54 415.76 141.21 415.68 142.05 C 415.70 213.20 415.71 284.35 415.67 355.50 C 353.48 391.45 291.25 427.33 228.98 463.16 C 229.03 418.85 228.97 374.55 229.01 330.24 C 252.84 316.52 276.63 302.76 300.43 288.99 C 300.38 261.82 300.52 234.65 300.36 207.48 C 326.65 191.66 353.13 176.17 379.54 160.58 Z" />
</g>
<g id="#7e53ffff">
<path fill="#7e53ff" opacity="1.00" d=" M 36.48 139.39 C 46.61 145.76 57.33 151.08 67.57 157.27 C 78.05 162.71 88.12 168.89 98.55 174.43 C 116.09 184.70 134.09 194.12 151.58 204.48 C 151.50 232.67 151.55 260.87 151.57 289.06 C 175.74 302.98 199.91 316.90 224.01 330.92 C 223.94 375.17 224.03 419.41 224.00 463.65 C 171.71 433.79 119.64 403.52 67.44 373.49 C 57.07 367.37 46.45 361.66 36.23 355.28 C 36.53 283.32 36.06 211.35 36.48 139.39 Z" />
</g>
</svg>
