<?xml version="1.0" encoding="UTF-8" ?>
<!DOCTYPE svg PUBLIC "-//W3C//DTD SVG 1.1//EN" "http://www.w3.org/Graphics/SVG/1.1/DTD/svg11.dtd">
<svg width="490pt" height="470pt" viewBox="0 0 490 470" version="1.1" xmlns="http://www.w3.org/2000/svg">
<g id="#313231ff">
</g>
<g id="#fb7d5bff">
<path fill="#fb7d5b" opacity="1.00" d=" M 108.86 90.83 C 115.42 89.54 122.31 89.87 129.01 89.66 C 196.34 90.03 263.67 89.76 331.00 89.79 C 336.21 90.01 341.51 89.20 346.66 90.21 C 349.18 90.91 351.79 91.13 354.35 91.64 C 355.94 92.91 356.99 94.70 358.20 96.31 C 354.68 97.25 351.03 97.53 347.50 98.39 C 346.90 99.34 346.30 100.29 345.70 101.24 C 344.75 101.42 343.80 101.59 342.86 101.77 C 343.79 102.63 344.72 103.50 345.64 104.39 C 345.63 106.13 345.74 107.87 345.90 109.61 C 345.56 111.13 345.62 112.70 345.85 114.24 C 338.15 114.71 330.33 113.73 322.70 114.72 C 321.81 118.39 322.52 122.25 322.35 126.00 C 322.07 154.65 322.15 183.30 322.30 211.95 C 321.81 215.23 325.75 215.54 328.07 215.63 C 358.36 215.71 388.66 215.62 418.95 215.67 C 422.04 216.10 422.78 212.34 422.66 210.02 C 422.60 194.69 422.76 179.35 422.58 164.02 C 421.80 157.76 421.92 151.00 418.43 145.48 C 418.46 144.28 418.21 143.00 418.68 141.86 C 420.90 140.70 423.47 140.77 425.90 140.65 C 425.95 138.87 425.94 137.09 425.86 135.31 C 424.79 135.15 423.73 134.98 422.67 134.82 C 423.62 129.32 417.56 126.55 416.16 121.76 C 414.96 119.36 416.25 116.82 416.90 114.47 C 415.99 114.55 415.09 114.62 414.19 114.70 C 412.07 112.18 410.69 109.18 409.79 106.04 C 411.17 104.83 412.57 103.65 414.00 102.51 C 419.14 105.71 423.97 109.45 428.01 113.99 C 432.73 119.51 437.53 125.19 440.00 132.13 C 444.17 140.12 447.61 148.83 447.45 158.00 C 447.48 203.33 447.44 248.66 447.48 293.99 C 447.45 298.71 447.34 303.55 445.90 308.08 C 443.78 312.47 443.16 317.42 440.75 321.69 C 434.20 336.18 422.21 347.39 409.32 356.29 C 405.78 358.31 401.88 359.63 398.10 361.14 C 387.81 365.76 376.19 364.40 365.24 364.34 C 362.72 360.90 358.49 360.56 354.58 360.97 C 354.53 361.49 354.44 362.55 354.40 363.07 C 353.32 362.97 352.24 362.88 351.16 362.79 C 351.26 360.88 351.42 358.99 351.64 357.10 C 350.62 357.06 349.61 357.03 348.60 357.00 C 348.57 357.79 348.55 358.58 348.54 359.38 C 347.32 359.78 346.10 360.20 344.90 360.62 C 343.09 357.02 338.78 356.72 335.59 354.93 C 338.82 354.14 342.15 353.94 345.44 353.45 C 349.15 352.85 352.92 354.99 356.55 353.63 C 357.13 352.77 357.66 351.88 358.15 350.96 C 355.81 350.16 353.36 349.88 350.91 349.76 C 350.05 347.92 348.63 346.46 347.07 345.21 C 348.57 345.46 350.09 345.68 351.62 345.88 C 356.16 342.31 362.25 344.98 367.44 343.44 C 374.00 342.26 380.73 342.55 387.28 341.32 C 388.84 341.15 390.00 340.08 391.01 338.99 C 393.80 335.51 399.66 335.68 400.90 330.79 C 404.80 326.70 409.55 323.33 412.53 318.43 C 414.51 315.21 417.10 312.36 418.75 308.94 C 422.03 300.35 421.38 291.01 421.42 282.00 C 421.19 268.04 421.80 254.05 421.13 240.12 L 420.84 239.10 C 416.58 238.55 412.28 238.82 408.00 238.80 C 380.66 238.74 353.31 238.65 325.96 238.68 C 322.13 238.45 318.81 240.64 315.13 241.27 C 315.13 243.32 314.96 245.40 315.40 247.41 C 316.31 249.76 319.02 251.28 318.91 254.05 C 319.44 261.34 318.36 268.65 318.95 275.95 C 319.25 279.69 318.75 283.42 318.18 287.11 C 317.35 291.47 318.97 295.83 318.33 300.21 C 317.54 306.74 318.30 313.33 317.87 319.89 C 315.48 319.07 313.09 318.26 310.69 317.51 C 311.22 320.18 313.42 321.78 315.60 323.15 C 315.08 324.31 314.57 325.47 314.07 326.64 C 315.35 326.55 316.63 326.46 317.91 326.38 C 318.83 329.66 317.89 333.05 316.39 336.00 C 316.12 334.32 315.89 332.63 315.66 330.95 C 313.10 332.40 310.42 333.88 307.37 333.05 C 307.90 333.77 308.43 334.49 308.96 335.21 C 307.18 338.73 303.78 341.05 301.63 344.33 C 298.64 344.10 295.92 345.05 293.73 347.12 C 294.74 348.80 295.77 350.47 296.77 352.17 C 293.57 351.31 292.14 348.15 290.16 345.82 C 293.58 344.61 295.90 341.67 298.80 339.63 C 299.23 335.56 299.12 331.46 298.63 327.41 C 297.99 321.96 298.30 316.47 298.27 311.00 C 298.36 245.62 298.32 180.23 298.21 114.85 L 297.34 114.94 C 289.90 114.28 282.42 114.90 274.97 114.65 C 270.48 114.32 266.03 113.53 261.52 113.49 C 261.52 111.85 261.54 110.21 261.59 108.57 C 263.05 108.30 264.51 108.00 265.97 107.65 C 264.23 106.64 262.22 106.27 260.23 106.32 C 258.78 107.36 259.69 109.41 259.56 110.89 C 257.28 110.84 255.01 110.78 252.73 110.70 C 252.74 108.72 252.09 106.50 249.90 106.00 C 247.29 105.86 246.07 108.43 244.72 110.18 C 244.22 108.88 243.73 107.59 243.24 106.30 C 244.65 105.22 246.03 104.10 247.37 102.95 C 246.06 101.70 244.65 100.37 242.78 100.10 C 240.25 99.21 237.93 101.94 235.46 100.65 C 231.28 99.18 226.84 98.94 222.51 98.22 C 222.50 98.64 222.47 99.48 222.46 99.90 C 218.75 98.53 214.85 98.13 210.95 98.79 C 203.89 98.36 196.70 99.48 189.75 97.83 C 188.24 97.87 186.80 98.44 185.30 98.50 C 182.55 97.75 179.89 96.23 176.94 96.77 C 170.93 97.52 164.78 97.02 159.15 94.68 C 160.86 92.49 163.61 92.01 166.11 91.24 C 147.04 90.87 127.94 91.20 108.86 90.83 Z" />
</g>
<g id="#fd7654ff">
<path fill="#fd7654" opacity="1.00" d=" M 346.66 90.21 C 350.72 89.36 354.88 89.75 359.00 89.67 C 366.00 89.73 373.01 89.46 380.00 90.03 C 388.54 90.32 396.93 92.77 404.58 96.49 C 407.66 98.59 411.42 99.75 414.00 102.51 C 412.57 103.65 411.17 104.83 409.79 106.04 C 410.69 109.18 412.07 112.18 414.19 114.70 C 415.09 114.62 415.99 114.55 416.90 114.47 C 416.25 116.82 414.96 119.36 416.16 121.76 C 417.56 126.55 423.62 129.32 422.67 134.82 C 423.73 134.98 424.79 135.15 425.86 135.31 C 425.94 137.09 425.95 138.87 425.90 140.65 C 423.47 140.77 420.90 140.70 418.68 141.86 C 418.21 143.00 418.46 144.28 418.43 145.48 L 417.73 145.07 C 414.77 139.09 411.70 132.92 406.47 128.56 C 400.79 123.86 394.34 119.86 387.21 117.80 C 373.91 113.41 359.65 114.60 345.85 114.24 C 345.62 112.70 345.56 111.13 345.90 109.61 C 345.74 107.87 345.63 106.13 345.64 104.39 C 344.72 103.50 343.79 102.63 342.86 101.77 C 343.80 101.59 344.75 101.42 345.70 101.24 C 346.30 100.29 346.90 99.34 347.50 98.39 C 351.03 97.53 354.68 97.25 358.20 96.31 C 356.99 94.70 355.94 92.91 354.35 91.64 C 351.79 91.13 349.18 90.91 346.66 90.21 Z" />
</g>
<g id="#f67857ff">
<path fill="#f67857" opacity="1.00" d=" M 98.46 92.72 C 101.84 91.71 105.33 90.98 108.86 90.83 C 127.94 91.20 147.04 90.87 166.11 91.24 C 163.61 92.01 160.86 92.49 159.15 94.68 C 164.78 97.02 170.93 97.52 176.94 96.77 C 179.89 96.23 182.55 97.75 185.30 98.50 C 186.80 98.44 188.24 97.87 189.75 97.83 C 196.70 99.48 203.89 98.36 210.95 98.79 C 214.85 98.13 218.75 98.53 222.46 99.90 C 222.47 99.48 222.50 98.64 222.51 98.22 C 226.84 98.94 231.28 99.18 235.46 100.65 C 237.93 101.94 240.25 99.21 242.78 100.10 C 244.65 100.37 246.06 101.70 247.37 102.95 C 246.03 104.10 244.65 105.22 243.24 106.30 C 243.73 107.59 244.22 108.88 244.72 110.18 C 246.07 108.43 247.29 105.86 249.90 106.00 C 252.09 106.50 252.74 108.72 252.73 110.70 C 255.01 110.78 257.28 110.84 259.56 110.89 C 259.69 109.41 258.78 107.36 260.23 106.32 C 262.22 106.27 264.23 106.64 265.97 107.65 C 264.51 108.00 263.05 108.30 261.59 108.57 C 261.54 110.21 261.52 111.85 261.52 113.49 C 266.03 113.53 270.48 114.32 274.97 114.65 C 282.42 114.90 289.90 114.28 297.34 114.94 C 297.05 115.16 296.48 115.59 296.20 115.81 C 241.14 115.23 186.07 115.72 131.00 115.56 C 122.17 115.74 112.84 114.69 104.59 118.51 C 99.91 120.26 95.51 122.66 91.36 125.43 C 92.38 123.48 93.31 121.49 94.27 119.52 C 94.89 119.95 95.51 120.39 96.14 120.83 C 97.76 119.84 99.37 118.83 100.98 117.81 C 100.15 115.92 98.76 114.40 96.87 113.54 C 96.71 113.15 96.40 112.37 96.25 111.97 C 94.49 112.89 92.74 113.83 91.00 114.78 C 90.00 114.27 88.99 113.76 87.99 113.26 C 86.93 113.79 85.88 114.32 84.82 114.85 C 82.86 110.35 86.69 106.15 89.16 102.74 C 87.86 102.24 86.60 101.44 85.17 101.44 C 82.57 102.95 80.25 105.11 77.08 105.26 C 79.38 103.06 81.94 101.05 84.85 99.71 C 89.51 97.63 93.65 94.49 98.46 92.72 Z" />
</g>
<g id="#fc7e5dff">
<path fill="#fc7e5d" opacity="1.00" d=" M 85.17 101.44 C 86.60 101.44 87.86 102.24 89.16 102.74 C 86.69 106.15 82.86 110.35 84.82 114.85 C 85.88 114.32 86.93 113.79 87.99 113.26 C 88.99 113.76 90.00 114.27 91.00 114.78 C 92.74 113.83 94.49 112.89 96.25 111.97 C 96.40 112.37 96.71 113.15 96.87 113.54 C 98.76 114.40 100.15 115.92 100.98 117.81 C 99.37 118.83 97.76 119.84 96.14 120.83 C 95.51 120.39 94.89 119.95 94.27 119.52 C 93.31 121.49 92.38 123.48 91.36 125.43 C 88.13 129.50 83.75 132.59 81.14 137.16 C 77.73 142.66 74.72 148.52 72.78 154.71 C 70.03 163.38 71.46 172.61 69.41 181.39 C 68.55 186.14 69.37 190.99 68.65 195.75 C 67.81 201.92 67.50 208.16 67.71 214.39 C 64.01 213.17 61.59 216.25 59.92 219.05 C 62.40 224.00 61.29 229.47 61.52 234.74 C 59.97 238.14 61.38 241.63 61.79 245.09 C 61.53 248.54 60.53 252.01 61.57 255.45 C 62.52 258.24 60.68 260.80 60.57 263.54 C 61.32 265.91 63.90 267.73 63.40 270.42 C 62.58 274.37 66.06 277.21 67.32 280.63 C 69.04 286.40 68.34 292.57 69.67 298.40 C 71.63 303.50 72.58 308.97 75.07 313.87 C 77.51 319.70 82.66 323.63 86.60 328.37 C 88.09 330.26 89.91 331.82 91.90 333.15 C 94.92 335.17 96.47 338.59 98.28 341.62 C 99.22 341.61 100.17 341.60 101.12 341.60 C 100.74 342.91 100.35 344.22 99.96 345.53 C 98.83 345.40 97.70 345.27 96.58 345.14 C 96.57 346.84 96.54 348.55 96.46 350.26 C 95.43 348.97 94.54 347.58 93.72 346.16 C 92.58 346.91 91.44 347.68 90.30 348.44 C 95.66 351.71 100.94 355.55 107.27 356.63 C 111.04 356.99 115.23 356.26 117.77 353.21 C 118.15 355.74 118.81 358.26 118.85 360.83 C 118.35 362.31 116.94 363.24 115.98 364.42 C 107.31 365.08 98.87 362.35 91.05 358.89 C 88.32 357.26 85.68 355.46 82.74 354.21 C 78.76 352.46 75.85 349.14 72.55 346.44 C 68.26 343.05 65.27 338.41 61.74 334.30 C 58.86 329.98 55.74 325.72 54.00 320.79 C 53.03 318.05 50.93 315.81 50.33 312.93 C 49.17 307.66 47.40 302.45 47.55 296.99 C 47.44 250.67 47.53 204.34 47.50 158.01 C 47.38 152.45 47.98 146.78 50.61 141.79 C 52.52 134.94 56.06 128.75 59.84 122.79 C 62.48 117.34 67.48 113.77 71.49 109.44 C 73.25 107.96 74.66 105.67 77.08 105.26 C 80.25 105.11 82.57 102.95 85.17 101.44 Z" />
</g>
<g id="#985144ff">
</g>
<g id="#f77859ff">
<path fill="#f77859" opacity="1.00" d=" M 297.34 114.94 L 298.21 114.85 C 298.32 180.23 298.36 245.62 298.27 311.00 C 298.30 316.47 297.99 321.96 298.63 327.41 C 299.12 331.46 299.23 335.56 298.80 339.63 C 295.90 341.67 293.58 344.61 290.16 345.82 C 292.14 348.15 293.57 351.31 296.77 352.17 C 295.77 350.47 294.74 348.80 293.73 347.12 C 295.92 345.05 298.64 344.10 301.63 344.33 C 303.78 341.05 307.18 338.73 308.96 335.21 C 308.43 334.49 307.90 333.77 307.37 333.05 C 310.42 333.88 313.10 332.40 315.66 330.95 C 315.89 332.63 316.12 334.32 316.39 336.00 C 317.89 333.05 318.83 329.66 317.91 326.38 C 316.63 326.46 315.35 326.55 314.07 326.64 C 314.57 325.47 315.08 324.31 315.60 323.15 C 313.42 321.78 311.22 320.18 310.69 317.51 C 313.09 318.26 315.48 319.07 317.87 319.89 C 318.30 313.33 317.54 306.74 318.33 300.21 C 318.97 295.83 317.35 291.47 318.18 287.11 C 318.75 283.42 319.25 279.69 318.95 275.95 C 318.36 268.65 319.44 261.34 318.91 254.05 C 319.02 251.28 316.31 249.76 315.40 247.41 C 314.96 245.40 315.13 243.32 315.13 241.27 C 318.81 240.64 322.13 238.45 325.96 238.68 C 353.31 238.65 380.66 238.74 408.00 238.80 C 412.28 238.82 416.58 238.55 420.84 239.10 L 421.13 240.12 C 388.38 240.82 355.61 239.48 322.86 239.87 C 322.33 261.24 323.36 282.62 323.18 304.00 C 323.31 315.82 322.98 327.66 323.51 339.48 C 340.34 340.11 357.19 340.00 374.03 339.63 C 383.59 339.13 392.82 335.85 400.90 330.79 C 399.66 335.68 393.80 335.51 391.01 338.99 C 390.00 340.08 388.84 341.15 387.28 341.32 C 380.73 342.55 374.00 342.26 367.44 343.44 C 362.25 344.98 356.16 342.31 351.62 345.88 C 350.09 345.68 348.57 345.46 347.07 345.21 C 348.63 346.46 350.05 347.92 350.91 349.76 C 353.36 349.88 355.81 350.16 358.15 350.96 C 357.66 351.88 357.13 352.77 356.55 353.63 C 352.92 354.99 349.15 352.85 345.44 353.45 C 342.15 353.94 338.82 354.14 335.59 354.93 C 338.78 356.72 343.09 357.02 344.90 360.62 C 346.10 360.20 347.32 359.78 348.54 359.38 C 348.55 358.58 348.57 357.79 348.60 357.00 C 349.61 357.03 350.62 357.06 351.64 357.10 C 351.42 358.99 351.26 360.88 351.16 362.79 C 352.24 362.88 353.32 362.97 354.40 363.07 C 354.44 362.55 354.53 361.49 354.58 360.97 C 358.49 360.56 362.72 360.90 365.24 364.34 C 295.50 364.71 225.75 364.40 156.00 364.50 C 142.66 364.46 129.32 364.62 115.98 364.42 C 116.94 363.24 118.35 362.31 118.85 360.83 C 118.81 358.26 118.15 355.74 117.77 353.21 C 115.23 356.26 111.04 356.99 107.27 356.63 C 100.94 355.55 95.66 351.71 90.30 348.44 C 91.44 347.68 92.58 346.91 93.72 346.16 C 94.54 347.58 95.43 348.97 96.46 350.26 C 96.54 348.55 96.57 346.84 96.58 345.14 C 97.70 345.27 98.83 345.40 99.96 345.53 C 100.35 344.22 100.74 342.91 101.12 341.60 C 100.17 341.60 99.22 341.61 98.28 341.62 C 96.47 338.59 94.92 335.17 91.90 333.15 C 89.91 331.82 88.09 330.26 86.60 328.37 C 82.66 323.63 77.51 319.70 75.07 313.87 C 72.58 308.97 71.63 303.50 69.67 298.40 C 68.34 292.57 69.04 286.40 67.32 280.63 C 66.06 277.21 62.58 274.37 63.40 270.42 C 63.90 267.73 61.32 265.91 60.57 263.54 C 60.68 260.80 62.52 258.24 61.57 255.45 C 60.53 252.01 61.53 248.54 61.79 245.09 C 61.38 241.63 59.97 238.14 61.52 234.74 C 61.29 229.47 62.40 224.00 59.92 219.05 C 61.59 216.25 64.01 213.17 67.71 214.39 C 67.50 208.16 67.81 201.92 68.65 195.75 C 69.37 190.99 68.55 186.14 69.41 181.39 C 71.46 172.61 70.03 163.38 72.78 154.71 C 72.34 193.14 73.17 231.57 72.77 270.00 C 72.65 279.64 72.69 289.28 73.51 298.90 C 74.05 302.97 75.44 306.91 77.43 310.51 C 86.15 327.46 104.49 340.43 124.01 339.46 C 175.01 339.47 226.00 339.44 277.00 339.47 C 283.38 339.36 289.78 339.72 296.15 339.21 C 296.50 334.15 296.38 329.07 296.38 324.01 C 296.40 263.34 296.43 202.67 296.40 142.00 C 296.30 133.27 296.65 124.53 296.20 115.81 C 296.48 115.59 297.05 115.16 297.34 114.94 Z" />
</g>
<g id="#323232ff">
</g>
<g id="#313134ff">
</g>
<g id="#313133ff">
</g>
</svg>
