<?xml version="1.0" encoding="UTF-8" ?>
<!DOCTYPE svg PUBLIC "-//W3C//DTD SVG 1.1//EN" "http://www.w3.org/Graphics/SVG/1.1/DTD/svg11.dtd">
<svg width="515pt" height="345pt" viewBox="0 0 515 345" version="1.1" xmlns="http://www.w3.org/2000/svg">
<g id="#313232ff">
</g>
<g id="#f77c5aff">
<path fill="#f77c5a" opacity="1.00" d=" M 131.40 40.63 C 136.88 39.71 142.45 39.58 148.00 39.62 C 229.33 39.72 310.67 39.77 392.00 39.72 C 404.07 39.63 416.14 43.75 425.16 51.87 C 431.95 57.70 436.95 65.43 440.26 73.71 C 442.63 79.48 442.92 85.80 443.24 91.96 C 443.41 126.30 443.27 160.65 443.44 195.00 C 443.29 205.85 444.26 216.93 441.26 227.52 C 437.54 240.52 428.66 251.94 417.15 258.99 C 408.12 264.44 397.25 264.73 387.02 265.28 C 306.00 265.29 224.98 265.44 143.96 265.29 C 137.18 264.98 130.16 264.66 123.83 261.98 C 116.06 258.41 108.50 253.69 103.30 246.76 C 96.20 237.03 91.42 225.24 91.57 213.05 C 91.53 172.69 91.69 132.34 91.46 91.98 C 90.79 77.13 97.95 62.65 108.59 52.59 C 115.28 47.23 122.85 42.26 131.40 40.63 M 135.39 65.63 C 128.60 67.43 123.32 72.91 119.90 78.84 C 116.98 83.72 117.65 89.58 117.54 95.00 C 117.56 130.67 117.73 166.34 117.56 202.00 C 117.72 210.24 116.70 219.02 120.61 226.62 C 123.85 232.08 129.04 236.60 135.25 238.28 C 142.00 240.17 149.08 239.53 156.00 239.70 C 232.00 239.65 307.99 239.69 383.99 239.68 C 392.85 239.72 403.06 239.51 409.67 232.70 C 414.89 228.01 416.81 220.81 416.62 214.00 C 416.58 174.67 416.70 135.34 416.57 96.01 C 416.47 91.46 416.79 86.82 415.61 82.37 C 414.04 75.65 408.71 70.25 402.51 67.51 C 396.01 64.86 388.85 65.53 381.99 65.38 C 311.99 65.19 241.99 65.43 172.00 65.30 C 159.82 64.90 147.48 63.75 135.39 65.63 Z" />
<path fill="#f77c5a" opacity="1.00" d=" M 76.48 289.98 C 78.29 289.74 80.12 289.71 81.94 289.70 C 205.99 289.53 330.03 289.64 454.07 289.66 C 457.56 289.69 461.82 289.75 464.03 292.96 C 467.30 296.87 466.71 302.27 466.51 307.01 C 466.32 311.41 462.70 315.76 458.01 315.36 C 332.32 315.37 206.63 315.46 80.95 315.37 C 78.25 315.27 75.35 315.34 72.91 314.05 C 66.36 308.83 65.66 298.22 70.91 291.86 C 72.37 290.41 74.56 290.32 76.48 289.98 Z" />
</g>
</svg>
