<?xml version="1.0" encoding="UTF-8" ?>
<!DOCTYPE svg PUBLIC "-//W3C//DTD SVG 1.1//EN" "http://www.w3.org/Graphics/SVG/1.1/DTD/svg11.dtd">
<svg width="400pt" height="400pt" viewBox="0 0 400 400" version="1.1" xmlns="http://www.w3.org/2000/svg">
<g id="#323233ff">
</g>
<g id="#f3775aff">
<path fill="#f3775a" opacity="1.00" d=" M 103.76 30.81 C 109.19 28.25 114.81 25.13 121.03 25.50 C 188.68 25.47 256.34 25.51 324.00 25.44 C 331.66 25.53 339.78 24.74 346.90 28.21 C 351.39 30.53 356.12 32.63 359.76 36.25 C 362.45 38.92 365.88 41.24 367.08 45.01 C 362.01 42.16 358.36 37.21 352.73 35.24 C 346.50 33.10 340.87 28.57 334.02 28.87 C 330.52 28.93 326.26 28.62 323.90 31.77 C 327.28 32.65 330.99 31.99 334.17 33.65 C 335.36 34.17 336.60 34.55 337.86 34.91 C 338.94 37.96 343.37 38.46 343.61 41.82 C 342.41 44.05 340.69 45.93 339.08 47.86 C 340.96 48.63 343.10 49.04 344.66 50.42 C 346.30 52.65 346.35 55.54 346.91 58.15 C 343.55 55.69 339.99 53.41 336.05 52.00 C 330.89 50.22 325.36 50.55 320.00 50.51 C 256.33 50.45 192.67 50.62 129.01 50.43 C 124.99 50.43 120.75 50.15 117.07 52.05 C 112.62 53.98 109.22 57.52 106.03 61.06 C 106.56 59.33 106.36 57.14 107.92 55.91 C 111.17 53.09 114.73 50.63 118.33 48.27 C 120.59 46.71 123.42 47.82 125.93 47.92 C 124.75 46.37 123.96 44.14 121.95 43.52 C 119.35 44.91 116.66 46.44 113.62 45.44 C 115.18 43.78 117.09 42.54 119.09 41.47 C 117.55 40.70 115.88 40.20 114.19 39.87 C 114.96 39.00 115.72 38.13 116.49 37.25 C 115.55 36.69 114.62 36.12 113.69 35.57 C 113.52 34.50 113.35 33.44 113.18 32.37 C 111.23 32.15 109.22 31.68 107.26 32.12 C 105.32 33.15 104.22 35.53 101.88 35.79 C 98.47 36.25 95.89 38.63 92.76 39.82 C 95.02 35.40 99.97 33.63 103.76 30.81 Z" />
</g>
<g id="#f87c5cff">
<path fill="#f87c5c" opacity="1.00" d=" M 323.90 31.77 C 326.26 28.62 330.52 28.93 334.02 28.87 C 340.87 28.57 346.50 33.10 352.73 35.24 C 358.36 37.21 362.01 42.16 367.08 45.01 C 369.56 46.29 370.23 49.27 371.68 51.45 C 374.91 56.75 377.68 62.65 377.49 69.01 C 377.45 138.67 377.46 208.33 377.50 277.99 C 377.70 283.23 376.81 288.53 374.22 293.14 C 369.75 304.66 360.62 313.88 349.95 319.86 C 348.17 320.78 345.95 321.14 344.77 322.92 C 340.49 324.12 336.02 324.17 331.64 324.74 C 330.15 325.05 328.18 325.24 327.82 327.05 C 327.41 330.63 328.15 334.42 326.63 337.80 C 324.86 342.09 322.26 345.97 320.31 350.18 C 316.90 357.70 310.17 362.87 303.79 367.77 C 301.06 370.03 297.67 371.19 294.46 372.57 C 288.96 374.95 282.83 374.46 277.00 374.57 C 217.67 374.50 158.34 374.58 99.01 374.52 C 90.98 374.40 82.45 374.67 75.17 370.78 C 68.87 368.54 63.36 364.70 57.74 361.18 C 52.54 356.76 47.23 352.27 43.42 346.53 C 34.44 335.66 28.47 322.11 27.51 307.99 C 27.45 245.66 27.53 183.34 27.47 121.01 C 27.08 112.23 30.94 103.82 35.91 96.79 C 41.34 87.29 51.02 81.42 60.56 76.71 C 65.59 74.93 71.02 75.02 76.26 74.34 C 77.89 65.49 79.31 56.17 84.53 48.60 C 86.72 45.27 89.14 41.68 92.76 39.82 C 95.89 38.63 98.47 36.25 101.88 35.79 C 104.22 35.53 105.32 33.15 107.26 32.12 C 109.22 31.68 111.23 32.15 113.18 32.37 C 113.35 33.44 113.52 34.50 113.69 35.57 C 114.62 36.12 115.55 36.69 116.49 37.25 C 115.72 38.13 114.96 39.00 114.19 39.87 C 115.88 40.20 117.55 40.70 119.09 41.47 C 117.09 42.54 115.18 43.78 113.62 45.44 C 116.66 46.44 119.35 44.91 121.95 43.52 C 123.96 44.14 124.75 46.37 125.93 47.92 C 123.42 47.82 120.59 46.71 118.33 48.27 C 114.73 50.63 111.17 53.09 107.92 55.91 C 106.36 57.14 106.56 59.33 106.03 61.06 C 105.04 63.65 103.79 66.13 102.91 68.76 C 101.30 75.01 101.33 81.57 100.89 87.98 C 101.05 110.02 99.10 131.98 98.30 153.99 C 98.53 169.67 97.54 185.33 97.29 201.00 C 97.52 210.33 97.45 219.67 97.73 229.00 C 97.65 233.24 96.89 237.49 97.58 241.72 C 99.18 252.28 97.64 263.00 98.63 273.59 C 100.14 281.16 102.48 289.21 108.55 294.44 C 111.35 297.45 115.18 299.43 119.39 298.82 C 123.58 299.24 127.78 299.60 132.00 299.53 C 197.00 299.50 262.00 299.59 326.99 299.48 C 333.29 299.71 339.47 297.15 344.45 293.46 C 347.82 288.57 351.70 283.25 351.45 277.01 C 351.44 211.34 351.48 145.67 351.48 80.01 C 351.45 76.33 351.64 72.62 351.03 68.98 C 350.39 65.13 348.46 61.69 346.91 58.15 C 346.35 55.54 346.30 52.65 344.66 50.42 C 343.10 49.04 340.96 48.63 339.08 47.86 C 340.69 45.93 342.41 44.05 343.61 41.82 C 343.37 38.46 338.94 37.96 337.86 34.91 C 336.60 34.55 335.36 34.17 334.17 33.65 C 330.99 31.99 327.28 32.65 323.90 31.77 M 69.73 100.95 C 63.23 103.97 57.77 108.97 53.86 114.94 C 53.00 115.46 52.49 116.21 52.32 117.17 C 51.03 123.70 51.40 130.38 51.36 136.99 C 50.99 188.66 51.21 240.34 51.33 292.02 C 51.29 297.60 51.78 303.20 53.11 308.63 C 54.15 312.94 54.72 317.79 58.01 321.07 C 59.86 325.56 63.13 329.22 66.10 332.99 C 70.04 338.20 76.03 341.15 81.46 344.52 C 87.97 347.21 94.83 349.90 102.01 349.51 C 160.01 349.45 218.00 349.61 276.00 349.40 C 282.64 349.73 289.33 347.71 294.50 343.52 C 298.29 339.79 300.21 334.74 301.90 329.81 C 302.20 328.43 303.23 326.39 301.83 325.32 C 289.23 325.02 276.60 325.55 264.00 324.85 C 217.67 324.60 171.33 325.06 125.01 324.68 C 119.42 324.74 113.58 324.44 108.63 321.57 C 92.58 316.06 81.80 300.79 77.53 284.89 C 76.01 274.66 76.74 264.30 76.58 254.00 C 77.00 202.68 76.38 151.36 76.70 100.04 C 74.35 99.15 71.90 99.97 69.73 100.95 Z" />
</g>
<g id="#333233ff">
</g>
<g id="#da6f56ff">
</g>
<g id="#32343aff">
</g>
<g id="#fa7c5cff">
<path fill="#fa7c5c" opacity="1.00" d=" M 181.50 101.45 C 183.80 100.23 186.51 100.60 189.02 100.47 C 223.68 100.53 258.34 100.43 293.00 100.49 C 298.86 99.69 301.31 106.43 302.39 110.95 C 302.58 143.96 302.41 176.98 302.52 209.99 C 302.43 213.11 302.66 216.44 301.25 219.32 C 299.40 221.68 297.27 224.63 293.95 224.67 C 290.48 224.95 286.90 225.17 283.48 224.36 C 278.64 221.40 276.59 215.45 276.68 210.00 C 276.58 188.33 276.39 166.62 276.86 144.98 C 273.08 146.96 270.85 150.92 267.48 153.48 C 256.89 164.55 245.92 175.26 235.13 186.13 C 230.45 190.44 225.77 194.77 221.54 199.54 C 216.40 205.40 210.19 210.19 205.13 216.12 C 198.45 222.10 192.34 228.67 185.90 234.90 C 182.53 238.20 179.69 242.07 175.86 244.89 C 172.51 247.69 168.70 250.83 164.03 250.32 C 158.22 249.26 153.60 244.40 151.70 238.96 C 151.44 235.19 152.80 231.20 155.58 228.57 C 169.81 214.14 184.22 199.89 198.50 185.51 C 210.09 173.75 222.08 162.39 233.32 150.29 C 241.11 142.74 248.70 134.95 256.16 127.08 C 256.45 126.19 256.71 125.29 256.92 124.37 C 233.61 124.62 210.29 124.49 186.98 124.47 C 183.68 124.78 180.73 122.57 179.32 119.73 C 176.31 113.99 176.86 106.17 181.50 101.45 Z" />
</g>
<g id="#9d5e4eff">
</g>
</svg>
