<?xml version="1.0" encoding="UTF-8" ?>
<!DOCTYPE svg PUBLIC "-//W3C//DTD SVG 1.1//EN" "http://www.w3.org/Graphics/SVG/1.1/DTD/svg11.dtd">
<svg width="755pt" height="755pt" viewBox="0 0 755 755" version="1.1" xmlns="http://www.w3.org/2000/svg">
<g id="#242022ff">
</g>
<g id="#ffffffff">
<path fill="#ffffff" opacity="1.00" d=" M 270.99 43.43 C 298.84 34.42 327.91 29.24 357.08 27.45 C 370.74 27.23 384.39 27.23 398.05 27.42 C 404.70 27.27 411.24 28.78 417.90 28.56 C 447.17 31.99 476.25 38.30 503.67 49.29 C 565.79 72.72 620.52 114.85 659.77 168.32 C 684.90 202.61 704.01 241.41 715.18 282.47 C 720.41 301.03 723.61 320.10 725.82 339.23 C 726.85 344.41 726.18 349.75 727.23 354.94 C 727.79 368.29 727.56 381.66 727.42 395.02 C 725.47 418.57 722.19 442.11 716.22 465.02 C 705.76 504.82 687.68 542.49 664.13 576.17 C 641.92 607.11 614.91 634.66 583.96 656.91 C 558.91 674.75 531.71 689.67 502.98 700.72 C 496.53 703.47 489.81 705.65 482.96 707.16 C 474.26 705.55 465.78 698.39 465.67 689.05 C 465.50 674.02 465.67 658.98 465.73 643.95 C 466.58 636.33 466.22 628.65 466.32 621.00 C 466.28 604.38 467.06 587.64 464.29 571.19 C 461.71 559.27 457.94 547.24 450.49 537.40 C 448.46 534.34 444.85 531.89 445.24 527.80 C 451.77 527.97 458.27 527.36 464.66 525.99 C 487.86 521.22 511.32 515.28 531.88 503.09 C 547.47 494.36 561.43 482.48 571.79 467.86 C 582.83 452.91 590.38 435.59 594.78 417.58 C 598.21 404.61 599.85 391.26 601.33 377.96 C 601.77 366.31 601.81 354.64 601.41 342.99 C 599.12 324.06 594.08 305.21 584.44 288.64 C 581.26 283.49 578.39 278.12 574.56 273.40 C 571.76 269.71 568.30 266.37 566.56 262.00 C 570.78 249.83 573.18 236.93 572.66 224.00 C 572.77 211.99 571.47 199.91 568.21 188.33 C 566.72 182.83 565.44 177.19 562.75 172.12 C 561.94 170.31 559.95 169.43 558.05 169.55 C 548.27 169.25 538.72 171.88 529.35 174.37 C 507.50 180.96 487.53 192.50 468.82 205.33 C 464.10 206.99 459.53 203.94 454.95 203.10 C 440.71 200.52 426.51 197.45 412.04 196.49 C 407.32 196.66 402.71 195.37 398.00 195.43 C 383.86 195.18 369.71 195.04 355.59 195.65 C 350.92 196.57 346.16 196.31 341.46 196.84 C 324.85 199.31 308.04 201.58 291.99 206.63 C 289.20 205.38 287.02 203.17 284.52 201.46 C 262.29 187.33 238.35 174.57 212.03 170.47 C 207.14 170.19 202.24 170.20 197.35 170.45 C 194.09 175.35 192.72 181.10 191.00 186.65 C 188.33 194.54 187.71 202.90 186.56 211.10 C 185.91 227.18 185.48 243.89 191.44 259.12 C 191.70 261.22 192.28 263.75 190.83 265.55 C 172.00 286.33 160.72 313.48 157.72 341.26 C 157.14 354.82 157.22 368.41 157.72 381.97 C 160.23 406.41 165.59 431.02 177.33 452.81 C 187.55 472.19 203.08 488.71 221.68 500.27 C 239.34 511.93 259.82 518.41 280.23 523.35 C 291.35 526.04 302.67 528.06 314.10 528.68 C 312.87 531.14 311.32 533.43 309.50 535.50 C 301.33 545.65 297.07 558.26 294.48 570.88 C 293.81 573.52 293.30 577.26 290.03 577.80 C 283.22 579.80 276.41 582.01 269.40 583.24 C 260.74 583.70 252.01 585.37 243.37 583.70 C 230.04 582.69 217.67 576.03 208.07 566.94 C 197.40 557.88 191.95 544.54 182.73 534.25 C 176.44 527.85 170.04 521.32 162.01 517.11 C 156.24 513.50 149.46 512.03 142.77 511.33 C 136.50 510.11 129.61 511.02 124.02 514.18 C 121.55 515.39 122.62 518.44 123.77 520.25 C 127.78 527.20 135.31 530.77 141.48 535.47 C 153.13 544.01 161.74 556.05 168.39 568.72 C 173.18 578.70 176.75 589.43 183.75 598.19 C 193.64 610.60 207.43 620.06 222.79 624.24 C 229.77 625.72 236.74 627.88 243.95 627.67 C 259.80 627.72 275.97 628.78 291.38 624.35 C 291.99 626.49 292.55 628.67 292.45 630.93 C 292.49 650.98 292.74 671.02 292.56 691.07 C 292.72 697.25 287.72 702.19 282.58 704.87 C 279.03 706.95 274.61 707.01 270.79 705.66 C 230.45 692.64 192.55 672.11 159.60 645.44 C 133.32 623.74 109.86 598.54 90.72 570.31 C 68.22 537.46 51.66 500.58 41.95 461.97 C 37.28 442.12 33.38 421.98 32.18 401.61 C 30.82 393.48 31.95 385.17 30.84 377.01 C 30.44 373.33 30.87 369.66 31.24 366.01 C 31.71 339.04 35.92 312.23 42.40 286.06 C 63.54 205.29 115.06 133.05 184.08 86.16 C 210.78 67.79 240.33 53.80 270.99 43.43 Z" />
<path fill="#ffffff" opacity="1.00" d=" M 154.58 520.37 C 157.82 519.51 161.42 520.63 162.66 523.94 C 162.44 526.03 161.46 528.00 160.10 529.59 C 155.26 530.22 153.50 524.17 154.58 520.37 Z" />
<path fill="#ffffff" opacity="1.00" d=" M 168.27 534.88 C 168.00 531.63 172.73 531.85 174.11 533.92 C 175.77 535.90 178.77 538.26 177.36 541.15 C 177.10 541.81 176.56 543.15 176.30 543.81 C 171.38 544.37 167.16 539.74 168.27 534.88 Z" />
<path fill="#ffffff" opacity="1.00" d=" M 183.67 550.27 C 189.34 549.69 191.11 555.89 192.88 560.01 C 191.64 561.32 190.40 562.63 189.11 563.91 C 185.84 562.74 182.26 560.74 181.58 557.01 C 181.61 554.60 182.79 552.43 183.67 550.27 Z" />
<path fill="#ffffff" opacity="1.00" d=" M 200.34 568.71 C 205.04 570.75 210.30 574.35 210.62 579.97 C 210.85 581.36 209.76 582.35 208.92 583.30 C 205.84 584.16 202.48 582.92 200.45 580.52 C 197.05 577.48 198.17 572.16 200.34 568.71 Z" />
<path fill="#ffffff" opacity="1.00" d=" M 222.51 593.43 C 220.70 591.05 221.08 586.81 224.13 585.67 C 228.13 585.12 231.76 587.38 234.90 589.56 C 234.46 591.79 235.31 594.89 232.85 596.14 C 229.40 597.49 224.56 596.90 222.51 593.43 Z" />
<path fill="#ffffff" opacity="1.00" d=" M 276.59 590.48 C 279.38 586.45 284.83 586.28 289.26 586.64 C 289.21 589.65 290.45 593.47 287.64 595.63 C 285.61 597.96 282.30 597.78 279.54 597.24 C 277.16 596.03 275.62 593.07 276.59 590.48 Z" />
<path fill="#ffffff" opacity="1.00" d=" M 250.87 591.94 C 254.67 589.43 259.48 590.44 263.54 591.68 C 263.52 594.20 263.79 596.99 262.05 599.08 C 259.48 600.54 256.20 601.88 253.35 600.41 C 249.85 599.61 248.37 594.51 250.87 591.94 Z" />
</g>
</svg>
