<?xml version="1.0" encoding="UTF-8" ?>
<!DOCTYPE svg PUBLIC "-//W3C//DTD SVG 1.1//EN" "http://www.w3.org/Graphics/SVG/1.1/DTD/svg11.dtd">
<svg width="1140pt" height="1265pt" viewBox="0 0 1140 1265" version="1.1" xmlns="http://www.w3.org/2000/svg">
<g id="#ffffffff">
</g>
<g id="#ff712cff">
<path fill="#ff712c" opacity="1.00" d=" M 540.99 37.93 C 552.46 35.18 564.21 33.06 576.05 33.33 C 608.20 34.02 638.69 47.21 665.03 64.94 C 683.68 76.97 702.22 89.19 721.08 100.89 C 733.50 108.83 745.74 117.06 758.42 124.58 C 789.75 144.18 820.59 164.53 852.00 184.01 C 871.15 196.62 890.56 208.83 910.00 221.00 C 914.22 223.54 918.52 226.06 922.09 229.51 C 918.54 229.26 914.97 229.29 911.44 228.88 C 887.87 225.33 863.50 226.22 840.43 232.40 C 823.81 237.18 807.89 244.26 792.92 252.88 C 778.63 261.20 763.91 268.82 750.27 278.20 C 736.88 287.31 722.89 295.49 709.26 304.23 C 691.11 315.80 672.80 327.12 654.50 338.45 C 643.43 345.80 631.96 352.51 620.81 359.75 C 606.00 369.29 590.60 377.90 576.20 388.08 C 562.36 396.54 549.01 405.77 535.10 414.12 C 516.02 425.97 497.36 438.48 478.24 450.27 C 464.63 458.57 451.25 467.23 437.81 475.81 C 420.46 486.36 403.19 497.07 386.24 508.25 C 373.98 516.81 361.16 524.51 348.61 532.61 C 319.04 551.84 288.89 570.15 259.22 589.21 C 241.35 600.73 223.11 611.64 205.38 623.36 C 197.86 628.26 190.42 633.27 182.77 637.97 C 169.93 645.95 157.56 654.67 144.71 662.63 C 127.61 673.50 111.45 685.82 96.30 699.26 C 85.23 708.94 75.88 720.36 66.87 731.93 C 51.63 751.30 39.97 773.76 34.56 797.89 C 31.45 808.67 32.90 819.96 32.64 831.00 C 32.31 843.05 33.03 855.08 33.79 867.10 C 31.82 855.16 32.61 843.03 32.28 831.00 C 32.48 805.67 32.32 780.33 32.19 755.00 C 32.36 707.67 32.13 660.33 32.15 613.00 C 32.47 565.99 31.39 519.00 31.94 472.00 C 32.31 460.67 32.05 449.33 32.22 437.99 C 32.41 426.99 31.89 415.88 33.96 405.00 C 37.08 388.58 42.70 372.57 51.08 358.08 C 60.38 341.69 74.45 328.68 88.99 316.99 C 102.00 306.24 116.92 298.22 131.02 289.04 C 141.90 281.88 152.88 274.90 163.79 267.79 C 176.96 258.83 190.72 250.78 204.06 242.06 C 217.56 233.13 231.42 224.74 245.08 216.04 C 259.74 206.33 274.77 197.18 289.43 187.47 C 298.73 181.32 308.23 175.50 317.81 169.80 C 332.25 161.05 346.29 151.66 360.47 142.51 C 386.95 125.66 413.61 109.09 439.89 91.93 C 451.96 84.29 464.51 77.41 476.32 69.35 C 496.21 55.91 517.49 43.71 540.99 37.93 Z" />
<path fill="#ff712c" opacity="1.00" d=" M 1117.43 687.90 C 1117.92 734.59 1117.38 781.30 1117.78 828.00 C 1117.72 838.02 1117.97 848.07 1117.29 858.08 C 1117.63 849.23 1117.41 840.38 1116.89 831.55 C 1117.63 821.20 1117.64 810.80 1116.87 800.46 C 1117.24 793.31 1117.54 786.16 1117.37 779.00 C 1117.42 748.63 1117.27 718.26 1117.43 687.90 Z" />
</g>
<g id="#fd491aff">
<path fill="#fd491a" opacity="1.00" d=" M 840.43 232.40 C 863.50 226.22 887.87 225.33 911.44 228.88 C 914.97 229.29 918.54 229.26 922.09 229.51 C 925.31 230.29 927.88 232.60 930.66 234.29 C 939.97 240.29 948.99 246.74 958.46 252.50 C 971.32 260.23 984.15 268.02 996.53 276.51 C 1008.07 284.44 1020.05 291.71 1032.01 299.00 C 1046.03 307.27 1059.77 316.18 1071.84 327.18 C 1079.93 334.74 1088.33 342.25 1094.13 351.82 C 1098.57 359.17 1103.58 366.43 1105.89 374.79 C 1107.61 384.51 1111.80 393.58 1113.47 403.32 C 1116.70 416.65 1115.47 430.43 1115.66 444.00 C 1115.66 556.00 1115.67 667.99 1115.65 779.99 C 1115.29 786.84 1115.54 793.71 1116.87 800.46 C 1117.64 810.80 1117.63 821.20 1116.89 831.55 C 1114.46 841.50 1116.41 851.72 1115.37 861.80 C 1114.68 870.75 1111.63 879.33 1111.05 888.31 C 1109.69 896.98 1105.65 904.95 1101.62 912.65 C 1093.29 928.23 1080.98 941.26 1067.48 952.49 C 1055.41 962.85 1041.52 970.70 1028.10 979.12 C 1014.47 987.32 1001.04 995.86 988.00 1004.97 C 969.91 1017.02 951.22 1028.13 932.97 1039.93 C 915.50 1051.18 897.95 1062.31 880.30 1073.26 C 868.08 1080.58 856.08 1088.25 844.31 1096.27 C 827.54 1107.21 810.29 1117.41 793.78 1128.75 C 775.93 1140.78 757.18 1151.37 739.20 1163.21 C 724.69 1172.95 709.43 1181.49 694.49 1190.53 C 679.20 1200.25 664.27 1210.62 648.26 1219.18 C 630.92 1228.46 612.17 1235.10 592.76 1238.39 C 573.80 1240.71 554.36 1239.20 535.99 1233.95 C 531.30 1232.62 526.43 1231.53 522.20 1229.02 C 514.91 1223.81 506.34 1220.91 498.78 1216.16 C 489.62 1210.74 480.91 1204.61 471.78 1199.17 C 458.08 1191.26 445.26 1181.88 431.15 1174.69 C 424.13 1171.16 418.26 1165.59 410.69 1163.15 C 405.75 1161.11 401.60 1157.66 397.08 1154.91 C 392.10 1151.69 386.65 1149.12 382.21 1145.13 C 377.18 1140.12 370.80 1136.90 364.99 1132.94 C 361.82 1130.79 358.29 1129.30 354.76 1127.88 C 346.93 1124.22 340.17 1118.67 332.75 1114.28 C 322.56 1107.80 312.48 1101.15 302.14 1094.92 C 299.34 1093.21 296.58 1091.39 294.30 1089.02 C 287.40 1081.38 278.19 1076.30 269.03 1071.88 C 267.50 1070.39 266.08 1068.71 265.37 1066.67 C 269.75 1064.97 274.39 1064.18 278.88 1062.87 C 292.59 1058.84 305.76 1053.11 318.28 1046.24 C 341.61 1033.68 364.48 1020.22 386.49 1005.46 C 408.26 991.49 430.96 979.00 452.22 964.24 C 474.61 948.58 498.41 935.14 521.31 920.27 C 530.49 914.50 539.55 908.54 548.68 902.70 C 556.89 897.53 565.50 893.00 573.61 887.67 C 593.52 875.29 613.06 862.33 633.02 850.04 C 644.00 843.03 654.86 835.86 665.82 828.84 C 679.46 820.49 693.22 812.36 706.61 803.62 C 724.87 791.41 743.82 780.27 762.25 768.31 C 774.37 760.37 786.58 752.58 798.78 744.75 C 811.53 736.90 824.37 729.17 836.82 720.84 C 846.80 714.51 856.43 707.59 866.89 702.05 C 874.25 698.97 881.49 695.52 888.20 691.17 C 891.98 688.71 895.36 685.44 899.79 684.16 C 904.27 682.79 909.01 681.76 912.83 678.87 C 919.77 673.67 927.77 670.23 935.56 666.55 C 943.82 662.75 953.10 662.46 962.02 663.20 C 970.16 663.70 977.74 667.25 984.45 671.69 C 987.04 672.98 985.98 676.12 985.99 678.41 C 989.27 679.56 992.68 680.52 995.65 682.40 C 999.82 685.05 1002.15 689.78 1006.42 692.31 C 1011.01 694.53 1016.59 694.83 1020.34 698.67 C 1027.42 705.43 1035.49 711.00 1043.50 716.60 C 1050.11 721.13 1058.85 721.51 1064.91 726.97 C 1072.85 734.18 1080.58 741.65 1089.29 747.94 C 1087.29 741.93 1084.87 736.00 1081.14 730.84 C 1075.58 722.88 1068.55 716.13 1061.69 709.31 C 1054.80 702.52 1048.31 695.27 1040.57 689.42 C 1032.06 682.94 1023.96 675.95 1015.22 669.79 C 999.33 659.03 983.61 647.99 967.17 638.08 C 950.80 627.34 934.41 616.64 917.89 606.13 C 912.21 602.62 906.45 599.21 901.15 595.14 C 895.30 588.17 886.73 584.69 879.49 579.49 C 868.08 571.67 856.18 564.64 844.20 557.74 C 834.62 551.67 825.01 545.63 815.50 539.46 C 812.10 537.27 808.37 535.72 804.71 534.06 C 789.24 525.15 774.57 514.96 759.44 505.52 C 733.57 488.79 707.23 472.80 681.56 455.78 C 678.67 452.82 675.76 449.82 672.15 447.73 C 666.17 444.15 660.48 440.11 654.53 436.47 C 646.11 431.30 638.48 424.93 629.88 420.05 C 620.68 414.19 611.00 409.10 602.08 402.82 C 599.16 400.74 595.71 399.71 592.34 398.66 C 586.56 395.79 581.13 392.24 576.20 388.08 C 590.60 377.90 606.00 369.29 620.81 359.75 C 631.96 352.51 643.43 345.80 654.50 338.45 C 672.80 327.12 691.11 315.80 709.26 304.23 C 722.89 295.49 736.88 287.31 750.27 278.20 C 763.91 268.82 778.63 261.20 792.92 252.88 C 807.89 244.26 823.81 237.18 840.43 232.40 Z" />
</g>
<g id="#db3118ff">
<path fill="#db3118" opacity="1.00" d=" M 1105.89 374.79 C 1110.50 383.30 1112.45 392.91 1114.79 402.22 C 1118.17 415.21 1116.98 428.73 1117.35 442.00 C 1117.54 523.97 1117.08 605.93 1117.43 687.90 C 1117.27 718.26 1117.42 748.63 1117.37 779.00 C 1117.54 786.16 1117.24 793.31 1116.87 800.46 C 1115.54 793.71 1115.29 786.84 1115.65 779.99 C 1115.67 667.99 1115.66 556.00 1115.66 444.00 C 1115.47 430.43 1116.70 416.65 1113.47 403.32 C 1111.80 393.58 1107.61 384.51 1105.89 374.79 Z" />
<path fill="#db3118" opacity="1.00" d=" M 592.34 398.66 C 595.71 399.71 599.16 400.74 602.08 402.82 C 611.00 409.10 620.68 414.19 629.88 420.05 C 638.48 424.93 646.11 431.30 654.53 436.47 C 660.48 440.11 666.17 444.15 672.15 447.73 C 675.76 449.82 678.67 452.82 681.56 455.78 C 664.53 445.96 648.44 434.64 631.83 424.15 C 618.71 415.58 605.13 407.71 592.34 398.66 Z" />
<path fill="#db3118" opacity="1.00" d=" M 804.71 534.06 C 808.37 535.72 812.10 537.27 815.50 539.46 C 825.01 545.63 834.62 551.67 844.20 557.74 C 856.18 564.64 868.08 571.67 879.49 579.49 C 886.73 584.69 895.30 588.17 901.15 595.14 C 892.78 590.54 884.81 585.29 876.72 580.23 C 852.66 564.94 828.33 550.03 804.71 534.06 Z" />
<path fill="#db3118" opacity="1.00" d=" M 144.71 662.63 C 157.56 654.67 169.93 645.95 182.77 637.97 C 198.01 648.62 213.82 658.44 229.43 668.56 C 261.60 689.95 294.83 709.69 327.23 730.74 C 341.09 740.01 355.52 748.38 369.48 757.50 C 396.78 775.74 425.05 792.45 452.47 810.50 C 469.47 821.20 486.69 831.55 503.64 842.34 C 526.93 857.49 550.69 871.94 573.61 887.67 C 565.50 893.00 556.89 897.53 548.68 902.70 C 539.55 908.54 530.49 914.50 521.31 920.27 C 498.41 935.14 474.61 948.58 452.22 964.24 C 430.96 979.00 408.26 991.49 386.49 1005.46 C 364.48 1020.22 341.61 1033.68 318.28 1046.24 C 305.76 1053.11 292.59 1058.84 278.88 1062.87 C 274.39 1064.18 269.75 1064.97 265.37 1066.67 C 266.08 1068.71 267.50 1070.39 269.03 1071.88 C 258.68 1066.99 249.22 1060.44 239.37 1054.66 C 217.36 1041.05 195.80 1026.74 173.70 1013.29 C 162.01 1006.10 151.00 997.89 139.24 990.82 C 121.41 979.80 103.42 968.95 86.60 956.40 C 75.54 948.30 65.31 938.89 57.32 927.70 C 48.72 916.06 42.73 902.73 38.06 889.10 C 35.85 881.95 34.39 874.56 33.79 867.10 C 33.03 855.08 32.31 843.05 32.64 831.00 C 32.90 819.96 31.45 808.67 34.56 797.89 C 39.97 773.76 51.63 751.30 66.87 731.93 C 75.88 720.36 85.23 708.94 96.30 699.26 C 111.45 685.82 127.61 673.50 144.71 662.63 Z" />
<path fill="#db3118" opacity="1.00" d=" M 967.17 638.08 C 983.61 647.99 999.33 659.03 1015.22 669.79 C 1023.96 675.95 1032.06 682.94 1040.57 689.42 C 1048.31 695.27 1054.80 702.52 1061.69 709.31 C 1068.55 716.13 1075.58 722.88 1081.14 730.84 C 1084.87 736.00 1087.29 741.93 1089.29 747.94 C 1080.58 741.65 1072.85 734.18 1064.91 726.97 C 1058.85 721.51 1050.11 721.13 1043.50 716.60 C 1035.49 711.00 1027.42 705.43 1020.34 698.67 C 1016.59 694.83 1011.01 694.53 1006.42 692.31 C 1002.15 689.78 999.82 685.05 995.65 682.40 C 992.68 680.52 989.27 679.56 985.99 678.41 C 985.98 676.12 987.04 672.98 984.45 671.69 C 977.74 667.25 970.16 663.70 962.02 663.20 C 953.10 662.46 943.82 662.75 935.56 666.55 C 927.77 670.23 919.77 673.67 912.83 678.87 C 909.01 681.76 904.27 682.79 899.79 684.16 C 895.36 685.44 891.98 688.71 888.20 691.17 C 881.49 695.52 874.25 698.97 866.89 702.05 C 886.47 689.62 905.94 677.01 925.47 664.49 C 939.50 655.89 953.03 646.49 967.17 638.08 Z" />
<path fill="#db3118" opacity="1.00" d=" M 1115.37 861.80 C 1116.41 851.72 1114.46 841.50 1116.89 831.55 C 1117.41 840.38 1117.63 849.23 1117.29 858.08 C 1116.29 868.29 1115.10 878.78 1111.05 888.31 C 1111.63 879.33 1114.68 870.75 1115.37 861.80 Z" />
<path fill="#db3118" opacity="1.00" d=" M 269.03 1071.88 C 278.19 1076.30 287.40 1081.38 294.30 1089.02 C 288.23 1086.30 283.24 1081.83 277.62 1078.38 C 274.56 1076.48 271.70 1074.29 269.03 1071.88 Z" />
<path fill="#db3118" opacity="1.00" d=" M 354.76 1127.88 C 358.29 1129.30 361.82 1130.79 364.99 1132.94 C 370.80 1136.90 377.18 1140.12 382.21 1145.13 C 375.77 1142.47 370.20 1138.23 364.23 1134.72 C 360.88 1132.73 357.66 1130.50 354.76 1127.88 Z" />
<path fill="#db3118" opacity="1.00" d=" M 410.69 1163.15 C 418.26 1165.59 424.13 1171.16 431.15 1174.69 C 445.26 1181.88 458.08 1191.26 471.78 1199.17 C 480.91 1204.61 489.62 1210.74 498.78 1216.16 C 506.34 1220.91 514.91 1223.81 522.20 1229.02 C 512.08 1226.55 503.03 1221.10 494.19 1215.79 C 469.19 1200.05 443.85 1184.86 418.79 1169.22 C 415.93 1167.41 413.22 1165.38 410.69 1163.15 Z" />
</g>
</svg>
