<?xml version="1.0" encoding="UTF-8" ?>
<!DOCTYPE svg PUBLIC "-//W3C//DTD SVG 1.1//EN" "http://www.w3.org/Graphics/SVG/1.1/DTD/svg11.dtd">
<svg width="410pt" height="405pt" viewBox="0 0 410 405" version="1.1" xmlns="http://www.w3.org/2000/svg">
<g id="#323232ff">
</g>
<g id="#f87a5cff">
<path fill="#f87a5c" opacity="1.00" d=" M 182.54 15.42 C 208.12 13.13 234.30 15.17 258.67 23.66 C 270.48 27.38 282.10 31.99 292.64 38.56 C 326.66 57.67 354.80 87.44 370.65 123.22 C 374.66 132.17 378.31 141.31 380.91 150.79 C 383.91 159.84 384.51 169.42 386.67 178.67 C 388.96 189.66 388.54 200.91 388.44 212.06 C 388.09 219.02 386.56 225.85 385.27 232.68 C 382.38 250.70 376.83 268.32 368.78 284.70 C 356.72 310.02 338.46 332.20 316.64 349.74 C 291.62 369.86 261.17 382.88 229.55 388.08 C 223.05 388.81 216.54 389.68 209.99 389.63 C 198.99 389.63 187.94 390.03 176.99 388.72 C 169.36 388.56 161.88 386.96 154.52 385.03 C 133.66 379.82 113.56 371.28 95.72 359.22 C 81.91 349.73 68.60 339.13 58.08 325.98 C 48.42 314.85 40.16 302.56 33.08 289.65 C 24.85 274.06 19.18 257.21 15.60 239.98 C 13.85 229.38 11.08 218.82 11.46 207.99 C 11.65 199.29 10.86 190.49 12.50 181.89 C 13.73 174.88 15.22 167.92 16.44 160.92 C 23.61 130.61 37.55 101.69 58.29 78.32 C 67.77 66.41 79.86 57.04 92.12 48.19 C 118.64 29.56 150.18 17.86 182.54 15.42 M 184.47 41.08 C 179.07 41.97 173.64 42.65 168.25 43.60 C 126.48 51.21 88.59 76.89 65.23 112.22 C 52.47 130.78 44.25 152.21 39.84 174.23 C 37.84 185.03 38.32 196.07 38.27 207.00 C 38.20 215.44 38.80 223.89 40.35 232.19 C 44.08 248.89 49.51 265.34 57.91 280.31 C 67.27 297.42 80.27 312.33 94.91 325.12 C 102.82 332.51 111.90 338.52 121.19 344.02 C 133.37 350.99 146.71 355.70 160.20 359.40 C 169.04 361.63 178.13 362.66 187.06 364.42 C 195.30 364.89 203.61 364.92 211.85 364.33 C 222.72 362.10 233.93 361.52 244.54 358.07 C 264.31 352.39 283.28 343.38 299.33 330.42 C 306.27 324.34 313.74 318.77 319.58 311.56 C 337.75 291.59 351.29 267.16 357.17 240.73 C 361.15 228.58 361.85 215.69 361.72 203.00 C 361.91 191.54 361.29 179.99 358.55 168.83 C 356.20 160.50 354.35 152.01 351.06 143.97 C 344.20 125.70 333.71 108.87 320.53 94.48 C 311.08 84.58 301.31 74.75 289.60 67.50 C 275.26 57.81 259.27 50.56 242.56 46.02 C 232.27 43.04 221.52 42.36 210.98 40.62 C 202.16 40.33 193.24 39.81 184.47 41.08 Z" />
<path fill="#f87a5c" opacity="1.00" d=" M 197.31 107.70 C 201.84 106.52 206.22 108.81 210.05 110.98 C 217.01 115.10 220.99 123.99 218.73 131.86 C 216.68 140.73 208.08 147.06 199.16 147.43 C 191.36 146.14 183.66 141.05 181.08 133.28 C 179.31 126.83 180.84 119.39 185.48 114.46 C 188.76 111.25 193.03 109.22 197.31 107.70 Z" />
<path fill="#f87a5c" opacity="1.00" d=" M 194.71 165.18 C 199.85 163.72 206.26 164.78 209.63 169.28 C 212.76 172.69 213.46 177.51 213.41 181.97 C 213.34 212.00 213.41 242.02 213.45 272.05 C 213.25 277.83 212.43 284.66 207.37 288.33 C 203.26 290.63 197.93 291.14 193.60 289.12 C 188.36 286.17 186.48 279.74 186.53 274.08 C 186.56 243.03 186.72 211.98 186.62 180.94 C 186.43 174.86 188.56 167.61 194.71 165.18 Z" />
</g>
</svg>
