<?xml version="1.0" encoding="UTF-8" ?>
<!DOCTYPE svg PUBLIC "-//W3C//DTD SVG 1.1//EN" "http://www.w3.org/Graphics/SVG/1.1/DTD/svg11.dtd">
<svg width="465pt" height="420pt" viewBox="0 0 465 420" version="1.1" xmlns="http://www.w3.org/2000/svg">
<g id="#313232ff">
</g>
<g id="#fa7c5aff">
<path fill="#fa7c5a" opacity="1.00" d=" M 147.65 33.63 C 153.76 30.00 161.07 29.55 168.01 29.65 C 242.69 29.67 317.37 29.80 392.05 29.74 C 409.23 29.63 423.83 44.00 427.24 60.28 C 428.28 67.13 428.31 74.08 428.25 81.00 C 428.34 133.35 428.35 185.69 428.42 238.04 C 428.63 251.57 422.86 265.64 411.73 273.71 C 401.99 280.65 389.44 280.46 378.00 280.43 C 364.33 280.16 350.63 280.88 337.01 279.66 C 333.95 279.65 330.90 279.81 327.84 279.84 C 327.55 290.89 327.68 301.95 327.69 313.01 C 328.51 325.17 329.11 337.49 327.16 349.58 C 324.92 358.99 319.71 368.02 311.77 373.74 C 303.73 379.39 293.55 380.39 283.99 380.37 C 212.66 380.24 141.33 380.47 70.00 380.30 C 63.80 380.32 57.50 379.93 51.55 378.10 C 40.36 373.60 31.67 363.74 28.21 352.23 C 25.91 345.05 26.69 337.42 26.50 330.00 C 26.65 275.65 26.55 221.30 26.53 166.95 C 26.21 159.75 29.49 153.09 33.11 147.09 C 39.12 137.55 49.40 130.07 60.97 129.78 C 82.77 129.39 104.58 129.96 126.38 129.68 C 126.76 109.79 126.42 89.89 126.49 69.99 C 126.53 66.39 126.41 62.71 127.41 59.21 C 130.79 48.66 137.62 38.78 147.65 33.63 M 159.49 55.80 C 155.33 57.30 152.57 61.62 152.72 66.01 C 152.58 123.02 152.62 180.03 152.69 237.04 C 152.68 240.58 153.10 244.11 153.81 247.57 C 154.60 251.61 158.97 253.38 162.57 254.13 C 168.67 254.97 174.84 255.35 181.01 255.26 C 248.35 255.27 315.70 255.36 383.04 255.24 C 388.43 254.79 394.93 255.23 398.99 251.02 C 401.73 246.18 401.47 240.37 401.56 234.98 C 401.46 181.66 401.85 128.33 401.42 75.00 C 401.30 69.60 401.82 64.01 400.08 58.81 C 397.93 55.59 393.41 55.76 389.97 55.52 C 316.31 55.06 242.66 55.50 169.01 55.27 C 165.83 55.32 162.61 55.17 159.49 55.80 M 52.68 166.00 C 52.52 223.67 52.62 281.35 52.66 339.02 C 52.99 343.26 52.94 348.48 56.57 351.40 C 61.96 355.09 68.80 354.63 75.02 354.70 C 144.34 354.70 213.67 354.78 282.99 354.72 C 288.43 354.53 294.86 355.29 299.13 351.19 C 301.17 347.88 301.20 343.76 301.46 339.99 C 301.66 320.11 301.37 300.21 301.68 280.33 C 256.77 280.40 211.86 280.38 166.95 280.26 C 160.19 279.90 152.93 279.71 147.05 275.91 C 142.84 273.28 138.79 270.26 135.58 266.45 C 129.33 258.81 126.35 248.85 126.54 239.05 C 126.48 211.18 126.51 183.31 126.63 155.44 C 105.74 155.41 84.85 155.16 63.96 155.38 C 58.17 155.16 52.33 159.95 52.68 166.00 Z" />
</g>
</svg>
