<?xml version="1.0" encoding="UTF-8" ?>
<!DOCTYPE svg PUBLIC "-//W3C//DTD SVG 1.1//EN" "http://www.w3.org/Graphics/SVG/1.1/DTD/svg11.dtd">
<svg width="131pt" height="128pt" viewBox="0 0 131 128" version="1.1" xmlns="http://www.w3.org/2000/svg">
<g id="#262526ff">
</g>
<g id="#fefefeff">
<path fill="#fefefe" opacity="1.00" d=" M 28.43 21.77 C 36.60 21.14 44.80 20.55 53.01 20.73 C 70.12 22.08 87.37 20.56 104.48 22.07 C 111.66 22.62 116.45 29.74 116.68 36.49 C 117.87 44.95 117.31 53.50 117.47 62.00 C 117.60 70.34 117.63 78.68 117.48 87.02 C 117.50 92.57 114.74 97.98 110.32 101.32 C 106.60 104.33 101.54 104.13 97.02 104.40 C 76.02 104.71 55.01 104.69 34.01 104.31 C 29.48 103.76 23.97 104.10 20.69 100.36 C 18.07 97.16 15.54 93.45 15.44 89.17 C 14.08 71.23 14.24 53.16 15.46 35.23 C 17.24 29.02 21.97 23.31 28.43 21.77 M 24.93 32.93 C 23.21 34.23 23.50 36.43 23.51 38.32 C 36.55 47.24 50.68 54.44 63.93 63.06 C 65.22 64.05 67.02 63.87 68.47 63.37 C 81.58 56.05 94.12 47.77 107.00 40.04 C 109.53 38.88 108.90 35.70 108.54 33.48 C 106.62 30.17 102.49 29.55 99.00 29.60 C 78.32 29.34 57.63 29.54 36.95 29.58 C 32.82 29.61 27.91 29.55 24.93 32.93 M 23.42 48.04 C 23.49 61.33 23.12 74.62 23.58 87.90 C 23.95 90.47 23.90 93.97 26.58 95.30 C 29.52 96.66 32.83 96.36 35.97 96.46 C 57.33 96.54 78.70 96.57 100.06 96.51 C 103.26 96.74 106.78 95.48 108.41 92.57 C 109.88 82.78 109.22 72.85 109.42 63.00 C 109.19 58.10 110.04 53.00 108.23 48.31 C 102.07 52.65 95.25 55.89 89.02 60.11 C 81.75 64.62 74.50 69.17 67.07 73.42 C 51.69 66.44 38.17 56.14 23.42 48.04 Z" />
</g>
</svg>
