<?xml version="1.0" encoding="UTF-8" ?>
<!DOCTYPE svg PUBLIC "-//W3C//DTD SVG 1.1//EN" "http://www.w3.org/Graphics/SVG/1.1/DTD/svg11.dtd">
<svg width="455pt" height="465pt" viewBox="0 0 455 465" version="1.1" xmlns="http://www.w3.org/2000/svg">
<g id="#323232ff">
</g>
<g id="#fa7b5eff">
<path fill="#fa7b5e" opacity="1.00" d=" M 192.58 35.16 C 197.65 34.41 203.53 33.88 207.88 37.16 C 212.66 40.68 214.83 46.42 217.34 51.58 C 221.34 60.93 226.36 70.13 233.87 77.15 C 239.50 82.86 247.07 85.95 254.34 88.99 C 259.53 90.88 264.98 93.05 268.48 97.55 C 271.84 101.97 274.85 107.73 273.01 113.39 C 270.97 119.23 267.61 125.42 261.51 127.76 C 253.15 131.06 243.96 133.04 236.95 139.01 C 228.59 144.98 223.40 154.25 219.60 163.58 C 216.96 170.81 214.29 178.88 207.50 183.28 C 202.28 185.95 195.94 185.97 190.42 184.22 C 185.37 182.26 181.34 178.04 179.17 173.12 C 176.49 167.28 175.01 160.94 171.86 155.31 C 168.75 149.33 164.26 144.09 158.88 140.05 C 150.55 133.98 140.43 131.24 131.45 126.37 C 125.23 123.08 121.48 116.09 121.52 109.16 C 122.50 101.69 127.18 94.54 134.19 91.48 C 140.51 88.93 147.20 87.23 153.23 84.02 C 163.18 77.34 171.47 67.79 175.44 56.37 C 177.89 50.00 180.16 43.08 185.38 38.38 C 187.33 36.50 189.97 35.62 192.58 35.16 M 185.82 89.70 C 178.98 97.85 170.66 105.12 160.56 108.85 C 160.55 109.59 160.54 110.33 160.53 111.08 C 171.85 115.12 180.78 123.62 188.34 132.67 C 192.16 137.25 194.38 142.83 197.26 147.99 C 199.23 145.32 200.83 142.40 202.53 139.54 C 210.18 127.10 221.10 116.40 234.57 110.46 C 234.53 110.05 234.44 109.25 234.40 108.84 C 222.84 104.33 213.62 95.61 205.94 86.10 C 202.42 81.84 200.35 76.64 197.06 72.23 C 193.24 78.01 190.21 84.30 185.82 89.70 Z" />
<path fill="#fa7b5e" opacity="1.00" d=" M 317.46 134.90 C 324.76 133.82 333.01 135.22 338.37 140.63 C 342.76 145.41 344.50 151.82 346.96 157.67 C 351.60 168.97 354.75 181.41 363.50 190.42 C 371.56 198.54 382.06 203.84 392.76 207.60 C 399.81 210.15 406.97 212.69 413.29 216.80 C 417.70 219.95 421.35 224.37 423.11 229.53 C 425.22 238.05 420.63 246.73 414.69 252.58 C 408.89 256.43 401.96 258.11 395.59 260.80 C 386.44 264.66 376.15 266.72 368.58 273.55 C 358.75 281.61 353.27 293.48 349.19 305.23 C 347.29 311.89 344.49 318.26 341.23 324.36 C 338.97 328.11 336.41 332.20 332.19 333.93 C 322.89 337.41 311.42 334.78 304.92 327.17 C 301.15 322.44 299.82 316.38 297.38 310.96 C 292.39 299.12 289.05 285.75 279.15 276.84 C 270.25 268.66 258.72 264.16 247.49 260.20 C 238.46 257.63 229.35 253.13 223.95 245.15 C 219.10 237.76 221.71 228.03 226.32 221.18 C 230.97 214.08 239.81 212.25 247.25 209.47 C 255.69 205.85 264.64 203.34 272.64 198.76 C 283.68 191.41 289.91 179.15 294.38 167.06 C 297.33 157.08 300.99 146.87 308.06 139.01 C 310.40 136.27 314.06 135.44 317.46 134.90 M 320.03 170.87 C 317.51 177.92 315.15 185.05 312.13 191.91 C 307.07 201.33 301.10 210.82 291.96 216.78 C 283.48 222.29 274.48 227.07 265.03 230.69 C 262.27 231.72 259.72 233.21 257.35 234.95 C 263.85 238.93 271.44 240.48 278.10 244.14 C 284.64 247.67 290.98 251.64 296.83 256.23 C 304.45 262.23 308.88 271.10 313.10 279.61 C 316.51 286.49 318.81 293.83 320.85 301.21 C 321.37 301.32 322.42 301.53 322.95 301.64 C 326.51 293.26 329.23 284.50 333.71 276.52 C 337.47 269.91 341.52 263.33 346.92 257.92 C 354.57 250.43 364.19 245.36 374.00 241.29 C 379.08 239.35 384.19 237.45 389.04 234.97 C 376.67 228.76 363.32 224.18 352.22 215.69 C 340.15 206.30 332.07 192.70 326.90 178.49 C 325.58 174.52 324.46 170.45 322.53 166.71 C 321.55 168.00 320.54 169.30 320.03 170.87 Z" />
<path fill="#fa7b5e" opacity="1.00" d=" M 154.45 209.97 C 161.45 208.71 169.01 210.09 174.80 214.32 C 178.87 217.31 181.21 222.00 183.13 226.54 C 186.80 236.45 191.08 246.12 194.55 256.10 C 199.62 270.29 211.41 281.30 225.03 287.28 C 236.71 293.07 249.90 295.28 261.14 302.01 C 267.49 306.29 273.87 312.80 273.59 321.02 C 273.87 325.43 271.84 329.46 270.02 333.33 C 268.31 336.85 266.23 340.50 262.64 342.39 C 255.39 346.28 247.38 348.40 239.80 351.51 C 233.64 354.08 227.32 356.21 221.13 358.67 C 213.52 361.46 207.90 367.65 202.74 373.64 C 196.18 383.24 191.09 393.92 187.93 405.14 C 185.40 412.67 182.39 420.17 177.92 426.78 C 175.49 430.26 172.14 433.35 167.90 434.33 C 158.22 437.19 146.56 433.85 140.77 425.33 C 137.03 419.67 135.14 413.08 132.44 406.91 C 127.80 395.67 124.74 383.53 117.49 373.57 C 107.41 360.78 91.19 355.74 76.49 350.36 C 66.26 346.81 54.54 342.89 49.08 332.73 C 43.49 323.12 47.98 310.62 55.92 303.83 C 62.63 299.12 70.79 297.16 78.26 293.99 C 86.91 290.30 96.01 287.60 104.27 283.04 C 116.24 275.97 122.92 263.07 127.90 250.58 C 132.04 240.44 133.99 229.28 140.31 220.12 C 143.33 214.95 148.35 210.72 154.45 209.97 M 149.95 265.04 C 146.41 273.66 141.47 281.61 136.14 289.23 C 128.71 299.19 117.86 305.98 106.54 310.75 C 99.71 313.53 92.99 316.67 85.85 318.61 C 82.83 319.42 79.90 320.54 77.12 321.99 C 79.08 323.07 81.09 324.08 83.24 324.71 C 92.45 327.42 101.35 331.12 110.02 335.24 C 119.76 340.21 129.42 346.09 136.23 354.84 C 147.96 369.21 152.08 387.74 160.01 404.14 C 163.59 397.41 165.55 389.99 168.61 383.03 C 172.97 370.99 178.55 358.93 188.11 350.11 C 198.83 339.89 212.66 333.91 226.28 328.64 C 231.36 326.24 237.18 325.51 241.75 322.06 C 239.94 321.10 238.12 320.18 236.20 319.47 C 223.10 314.84 209.75 310.36 197.88 302.99 C 185.60 294.91 177.71 281.89 171.31 268.99 C 166.88 260.29 165.12 250.44 159.97 242.11 C 155.31 249.14 153.57 257.51 149.95 265.04 Z" />
</g>
</svg>
