<?xml version="1.0" encoding="UTF-8" ?>
<!DOCTYPE svg PUBLIC "-//W3C//DTD SVG 1.1//EN" "http://www.w3.org/Graphics/SVG/1.1/DTD/svg11.dtd">
<svg width="117pt" height="130pt" viewBox="0 0 117 130" version="1.1" xmlns="http://www.w3.org/2000/svg">
<g id="#242324ff">
</g>
<g id="#ffffffff">
<path fill="#ffffff" opacity="1.00" d=" M 44.33 14.17 C 49.55 13.09 55.77 13.11 59.67 17.30 C 64.06 22.53 67.36 29.03 67.38 35.99 C 67.65 39.91 66.61 44.00 63.92 46.94 C 61.48 49.91 57.92 52.19 56.75 56.02 C 56.32 59.94 58.88 63.29 60.29 66.76 C 61.78 70.40 64.15 74.03 68.06 75.35 C 74.18 75.90 79.77 71.50 85.92 72.46 C 92.08 74.81 95.79 80.67 99.26 85.92 C 103.07 91.42 103.25 99.57 98.67 104.67 C 95.11 108.68 90.74 112.55 85.26 113.42 C 79.16 114.13 72.60 114.26 67.07 111.19 C 56.86 105.69 49.69 96.24 42.97 87.07 C 33.36 72.21 25.21 55.17 26.41 37.02 C 26.49 26.62 33.88 16.17 44.33 14.17 M 45.68 21.85 C 41.54 23.14 37.83 26.07 36.21 30.16 C 33.83 35.40 34.53 41.30 34.77 46.88 C 35.74 52.29 36.90 57.75 39.24 62.76 C 45.03 77.10 54.17 90.05 65.60 100.46 C 70.79 104.68 77.67 108.05 84.46 106.07 C 88.49 104.38 93.00 101.61 93.57 96.87 C 94.55 92.35 91.16 88.63 89.12 84.96 C 87.61 83.01 86.32 79.67 83.31 80.23 C 79.94 80.60 76.92 82.44 73.53 82.84 C 69.79 83.43 65.42 84.60 62.19 81.91 C 55.03 76.37 51.43 67.66 48.66 59.32 C 48.10 56.53 46.96 53.26 48.71 50.68 C 52.31 47.12 57.47 44.39 58.65 39.06 C 60.45 34.01 57.87 28.79 55.54 24.38 C 53.58 20.84 49.09 20.96 45.68 21.85 Z" />
</g>
</svg>
