<?xml version="1.0" encoding="UTF-8" ?>
<!DOCTYPE svg PUBLIC "-//W3C//DTD SVG 1.1//EN" "http://www.w3.org/Graphics/SVG/1.1/DTD/svg11.dtd">
<svg width="510pt" height="480pt" viewBox="0 0 510 480" version="1.1" xmlns="http://www.w3.org/2000/svg">
<g id="#313232ff">
</g>
<g id="#f47d60ff">
<path fill="#f47d60" opacity="1.00" d=" M 271.73 54.38 C 280.23 54.27 288.56 56.35 296.73 58.48 C 304.31 60.44 311.46 63.72 318.30 67.48 C 333.13 75.17 345.73 86.73 361.36 92.95 C 384.36 102.41 409.59 103.10 434.02 105.38 C 438.47 105.82 444.25 105.62 447.01 109.85 C 448.04 114.66 447.28 119.67 447.75 124.56 C 448.51 132.35 448.16 140.18 448.29 147.99 C 448.35 169.01 448.52 190.04 448.18 211.05 C 447.45 216.39 447.80 221.83 446.96 227.14 C 446.94 230.26 443.25 230.05 441.00 230.34 C 386.64 230.40 332.28 230.30 277.92 230.46 C 275.86 230.35 273.51 230.66 271.83 229.20 C 271.45 227.52 271.44 225.79 271.40 224.08 C 271.51 167.51 271.58 110.95 271.73 54.38 Z" />
<path fill="#f47d60" opacity="1.00" d=" M 219.04 59.75 C 228.46 56.71 238.31 54.64 248.25 55.46 C 248.37 109.97 248.36 164.48 248.53 218.99 C 248.47 222.42 248.70 225.87 248.22 229.27 C 246.43 230.53 244.15 230.36 242.08 230.41 C 189.71 230.35 137.35 230.41 84.98 230.32 C 81.19 230.41 77.42 229.95 73.68 229.39 C 72.13 222.42 72.61 215.26 72.24 208.18 C 71.39 201.82 71.71 195.40 71.61 189.01 C 71.44 164.32 71.50 139.63 71.61 114.94 C 71.74 112.36 71.76 108.88 74.61 107.75 C 80.71 105.39 87.38 105.33 93.76 104.22 C 108.19 101.82 122.98 101.52 137.13 97.60 C 151.03 94.31 164.53 89.16 176.89 81.96 C 190.77 74.28 203.53 64.05 219.04 59.75 Z" />
<path fill="#f47d60" opacity="1.00" d=" M 77.17 254.77 C 132.47 254.45 187.77 254.61 243.08 254.65 C 244.80 254.78 247.43 254.53 248.07 256.62 C 248.69 260.37 248.27 264.21 248.37 268.00 C 248.50 322.07 248.28 376.14 248.51 430.21 C 246.32 429.54 244.12 428.87 242.12 427.76 C 203.43 405.09 164.69 381.14 133.43 348.56 C 111.70 327.72 94.40 302.25 82.99 274.39 C 80.70 267.97 78.17 261.54 77.17 254.77 Z" />
<path fill="#f47d60" opacity="1.00" d=" M 271.63 254.60 C 328.69 254.48 385.76 254.66 442.82 254.65 C 434.47 288.60 415.07 319.00 391.05 344.05 C 383.09 352.12 375.20 360.33 366.29 367.37 C 339.25 391.23 308.19 409.85 277.25 428.12 C 275.46 429.03 273.50 429.52 271.57 430.06 C 271.37 396.04 271.63 362.02 271.54 328.00 C 271.59 303.53 271.27 279.07 271.63 254.60 Z" />
</g>
</svg>
