<?xml version="1.0" encoding="UTF-8" ?>
<!DOCTYPE svg PUBLIC "-//W3C//DTD SVG 1.1//EN" "http://www.w3.org/Graphics/SVG/1.1/DTD/svg11.dtd">
<svg width="519pt" height="423pt" viewBox="0 0 519 423" version="1.1" xmlns="http://www.w3.org/2000/svg">
<g id="#323232ff">
</g>
<g id="#f67b5eff">
<path fill="#f67b5e" opacity="1.00" d=" M 104.58 50.92 C 112.38 48.08 120.83 48.33 128.99 47.70 C 152.33 47.73 175.68 47.39 199.00 48.28 C 244.67 48.22 290.33 48.36 336.00 48.25 C 347.98 47.31 360.00 47.88 372.00 47.71 C 378.82 47.54 385.62 48.10 392.41 48.71 C 407.18 50.78 420.26 59.01 431.03 68.98 C 439.82 77.19 445.87 87.87 450.04 99.05 C 452.12 105.85 454.30 112.75 454.38 119.94 C 454.52 141.63 454.26 163.32 454.39 185.00 C 454.34 189.23 456.11 193.67 454.20 197.72 C 453.41 195.65 451.72 194.28 450.08 192.92 C 443.53 186.13 436.82 179.50 430.00 172.98 C 428.58 171.70 427.34 170.07 427.58 168.03 C 427.61 152.36 428.11 136.67 427.72 120.99 C 427.55 111.18 423.63 101.86 418.45 93.69 C 408.98 79.71 391.45 72.99 374.99 73.34 C 294.33 73.28 213.67 73.42 133.01 73.35 C 125.37 73.40 117.45 73.25 110.35 76.47 C 96.21 81.58 86.10 94.12 80.58 107.71 C 77.95 113.80 78.72 120.55 78.55 127.00 C 78.66 175.68 78.63 224.35 78.65 273.03 C 78.56 280.68 80.51 288.27 84.00 295.06 C 90.36 305.66 99.58 315.15 111.42 319.40 C 118.26 322.09 125.61 323.40 132.96 323.33 C 153.64 323.39 174.32 323.25 194.99 323.20 C 197.35 323.22 199.71 323.22 202.05 323.57 C 204.79 327.80 204.68 333.20 207.59 337.38 C 209.76 340.60 210.34 344.42 211.20 348.11 C 208.83 347.29 206.46 348.47 204.06 348.36 C 178.37 348.31 152.68 348.28 126.99 348.30 C 110.41 348.25 94.07 342.13 81.11 331.84 C 71.51 323.61 63.82 313.20 58.51 301.74 C 55.05 291.88 52.34 281.53 52.59 271.00 C 52.48 221.67 52.71 172.34 52.49 123.00 C 52.02 107.44 58.03 92.30 66.61 79.55 C 75.68 66.09 89.72 56.89 104.58 50.92 Z" />
<path fill="#f67b5e" opacity="1.00" d=" M 328.51 172.94 C 340.03 172.46 351.72 171.99 363.08 174.32 C 381.17 176.96 397.07 186.86 411.70 197.24 C 421.11 205.16 430.02 214.05 436.01 224.91 C 446.16 239.78 452.19 257.24 454.40 275.05 C 454.73 284.81 455.18 294.74 452.98 304.34 C 449.62 318.35 444.47 331.96 437.29 344.46 C 429.08 358.34 417.37 369.91 404.32 379.25 C 398.08 383.06 391.61 386.51 385.07 389.78 C 374.81 394.10 363.90 396.88 352.83 398.03 C 333.34 399.33 313.05 397.54 295.31 388.79 C 289.18 385.54 282.78 382.79 276.91 379.06 C 263.58 369.82 251.87 357.93 244.08 343.62 C 238.79 333.63 233.63 323.38 231.02 312.30 C 226.69 295.99 225.81 278.45 230.25 262.07 C 233.27 252.20 235.87 242.05 241.03 233.01 C 244.99 225.00 250.26 217.73 255.81 210.76 C 265.52 199.53 277.99 191.13 290.88 183.96 C 302.63 178.07 315.39 174.11 328.51 172.94 M 334.11 224.07 C 327.92 228.84 322.69 234.68 317.12 240.12 C 306.42 250.76 295.82 261.50 285.07 272.07 C 282.47 275.03 279.36 277.92 278.50 281.92 C 277.58 286.68 278.74 292.26 282.86 295.24 C 285.96 297.51 290.00 299.59 293.92 298.34 C 297.89 296.89 301.05 293.92 304.08 291.08 C 310.73 284.39 317.35 277.67 323.88 270.86 C 325.35 269.10 327.67 268.66 329.73 267.96 C 328.70 271.24 329.62 274.65 329.40 278.00 C 329.37 296.00 329.38 314.00 329.36 332.00 C 329.35 335.69 329.60 339.81 332.33 342.61 C 336.08 347.36 343.68 348.17 348.42 344.46 C 352.50 341.43 352.25 335.60 352.56 331.03 C 352.64 309.94 352.60 288.84 352.50 267.75 C 354.53 269.33 356.99 270.34 358.65 272.37 C 366.23 280.45 374.49 287.81 382.64 295.30 C 385.84 297.93 390.43 300.65 394.58 298.53 C 399.65 295.99 405.31 291.36 404.49 285.03 C 404.74 280.88 401.65 277.76 399.06 274.93 C 383.93 259.73 368.77 244.57 353.56 229.46 C 350.46 226.60 347.57 223.20 343.43 221.86 C 340.19 220.55 336.73 222.18 334.11 224.07 Z" />
</g>
</svg>
