<?xml version="1.0" encoding="UTF-8" ?>
<!DOCTYPE svg PUBLIC "-//W3C//DTD SVG 1.1//EN" "http://www.w3.org/Graphics/SVG/1.1/DTD/svg11.dtd">
<svg width="510pt" height="455pt" viewBox="0 0 510 455" version="1.1" xmlns="http://www.w3.org/2000/svg">
<g id="#323232ff">
</g>
<g id="#fa7a5cff">
<path fill="#fa7a5c" opacity="1.00" d=" M 208.54 20.55 C 224.44 18.59 240.55 19.75 256.34 22.18 C 272.62 25.31 288.72 29.77 303.99 36.29 C 321.73 44.11 338.10 54.73 353.50 66.44 C 368.72 78.14 382.20 92.08 393.67 107.47 C 413.36 134.89 426.49 167.15 430.63 200.70 C 432.41 211.05 434.04 221.46 433.50 232.00 C 434.10 242.87 432.36 253.61 430.67 264.30 C 428.29 283.44 423.32 302.23 416.61 320.31 C 409.29 340.18 398.15 358.47 384.68 374.76 C 368.65 395.06 346.69 411.08 321.67 418.18 C 310.96 420.58 300.06 423.35 289.00 422.26 C 274.32 420.11 259.68 416.50 246.44 409.62 C 227.67 401.12 212.61 385.41 203.78 366.90 C 195.54 348.74 193.86 328.61 192.39 308.99 C 192.66 299.40 191.80 289.82 190.18 280.37 C 188.53 272.08 184.47 262.87 175.82 259.98 C 164.49 256.22 151.24 255.78 140.59 261.81 C 130.99 266.80 122.20 273.27 112.23 277.53 C 106.76 279.76 100.75 279.63 94.96 279.58 C 89.57 279.51 84.25 278.19 79.32 276.07 C 69.02 271.67 59.55 265.29 51.83 257.16 C 42.70 248.47 36.32 237.03 33.72 224.70 C 29.93 211.11 31.10 196.68 34.64 183.17 C 38.38 165.96 44.75 149.39 53.04 133.87 C 62.96 113.87 76.36 95.81 90.99 79.04 C 99.93 69.20 109.57 59.89 120.56 52.35 C 146.51 34.49 177.03 22.84 208.54 20.55 M 208.45 45.86 C 197.23 47.75 185.86 49.41 175.19 53.53 C 161.81 57.94 149.35 64.75 137.70 72.59 C 125.89 80.59 115.75 90.72 106.01 101.06 C 93.46 115.03 83.52 131.11 74.77 147.67 C 66.94 163.73 60.05 180.61 57.91 198.48 C 56.99 208.81 57.11 220.11 62.97 229.11 C 70.14 240.50 81.49 249.13 94.19 253.47 C 97.88 255.09 101.69 252.98 105.15 251.71 C 116.25 246.78 126.30 239.68 137.69 235.35 C 142.99 233.47 148.38 231.38 154.09 231.37 C 161.85 231.25 169.78 230.94 177.30 233.29 C 189.10 236.09 201.08 241.98 207.38 252.82 C 215.09 264.82 215.86 279.45 217.97 293.16 C 219.06 299.07 217.74 305.12 218.87 311.03 C 219.74 315.57 219.29 320.22 219.49 324.82 C 219.62 331.15 221.73 337.18 223.16 343.29 C 225.03 351.59 229.14 359.19 233.86 366.19 C 241.93 376.94 253.28 385.04 265.81 389.82 C 275.09 393.18 284.82 396.51 294.85 395.26 C 305.20 396.65 315.26 393.08 324.75 389.39 C 334.80 385.30 343.81 379.06 351.89 371.89 C 359.01 365.04 366.15 358.05 371.49 349.67 C 386.52 328.11 397.18 303.44 401.94 277.57 C 403.23 271.75 404.96 266.00 405.48 260.04 C 406.36 251.04 407.78 242.06 407.47 232.99 C 407.99 209.58 403.54 186.21 395.34 164.31 C 382.71 129.96 358.26 100.54 328.10 80.06 C 310.66 68.57 292.16 58.24 271.99 52.40 C 260.64 48.60 248.69 47.30 236.90 45.61 C 227.43 45.31 217.89 44.89 208.45 45.86 Z" />
<path fill="#fa7a5c" opacity="1.00" d=" M 221.61 95.26 C 228.19 93.58 236.01 95.06 240.40 100.58 C 243.86 104.14 245.10 109.18 244.77 114.04 C 245.51 125.60 233.10 136.50 221.74 132.81 C 212.49 130.37 205.33 120.83 206.63 111.18 C 208.24 103.81 213.84 96.57 221.61 95.26 Z" />
<path fill="#fa7a5c" opacity="1.00" d=" M 297.47 119.93 C 306.52 117.74 316.93 123.20 319.23 132.42 C 320.17 138.47 320.43 145.39 316.38 150.43 C 313.52 154.21 309.46 157.22 304.82 158.34 C 295.96 159.80 286.61 154.38 283.19 146.13 C 277.87 135.67 285.98 121.37 297.47 119.93 Z" />
<path fill="#fa7a5c" opacity="1.00" d=" M 339.52 175.94 C 344.90 174.72 351.02 175.09 355.53 178.59 C 360.29 182.31 364.52 187.74 364.55 194.05 C 364.92 200.96 360.48 207.10 355.43 211.37 C 351.19 215.07 344.99 215.33 339.80 213.87 C 333.75 211.39 328.31 206.57 326.05 200.33 C 322.99 190.25 330.03 179.38 339.52 175.94 Z" />
<path fill="#fa7a5c" opacity="1.00" d=" M 339.53 250.94 C 344.64 249.78 350.52 249.90 354.86 253.21 C 359.89 256.95 364.41 262.50 364.55 269.04 C 365.07 275.75 360.72 281.70 355.96 285.95 C 351.38 290.09 344.52 290.49 338.86 288.72 C 333.62 286.28 329.18 281.96 326.50 276.85 C 322.37 266.49 329.45 254.46 339.53 250.94 Z" />
<path fill="#fa7a5c" opacity="1.00" d=" M 290.43 300.80 C 295.33 299.92 300.80 300.06 304.95 303.16 C 310.26 307.05 314.96 313.08 314.54 320.00 C 314.57 326.58 310.24 332.29 305.41 336.35 C 301.10 340.09 294.86 340.27 289.58 338.95 C 284.00 336.69 279.30 332.17 276.62 326.79 C 272.23 316.28 279.87 303.66 290.43 300.80 Z" />
</g>
</svg>
