<?xml version="1.0" encoding="UTF-8" ?>
<!DOCTYPE svg PUBLIC "-//W3C//DTD SVG 1.1//EN" "http://www.w3.org/Graphics/SVG/1.1/DTD/svg11.dtd">
<svg width="480pt" height="515pt" viewBox="0 0 480 515" version="1.1" xmlns="http://www.w3.org/2000/svg">
<g id="#313231ff">
</g>
<g id="#f87b58ff">
<path fill="#f87b58" opacity="1.00" d=" M 336.01 57.11 C 343.07 53.93 354.06 54.07 357.39 62.40 C 357.96 78.58 357.53 94.81 357.87 111.00 C 358.37 117.21 358.31 123.44 358.34 129.67 C 367.89 129.95 377.46 129.57 387.00 130.11 C 399.94 130.35 412.90 129.80 425.82 130.48 C 428.20 130.54 429.67 132.59 430.17 134.73 C 431.81 139.28 431.66 144.25 431.18 148.99 C 430.41 151.49 428.78 154.50 425.82 154.62 C 417.94 155.88 409.93 155.02 401.99 155.19 C 392.67 154.59 383.33 154.86 374.00 154.84 C 368.47 154.87 362.91 154.46 357.42 155.30 C 357.70 176.19 357.46 197.09 357.55 217.99 C 357.38 220.39 357.94 223.23 356.08 225.13 C 354.20 227.21 352.02 229.67 348.96 229.59 C 344.54 229.68 339.29 230.66 335.92 227.05 C 331.84 224.07 332.17 218.49 331.79 214.00 C 331.66 194.44 331.58 174.88 331.74 155.33 C 309.84 155.50 287.93 155.25 266.04 154.66 C 261.61 154.76 258.07 150.26 258.31 146.01 C 258.38 140.84 257.19 134.46 261.43 130.53 C 278.26 129.78 295.15 130.57 311.99 130.02 C 318.54 129.40 325.10 130.77 331.63 129.74 C 331.57 109.50 331.73 89.25 331.72 69.00 C 331.94 64.84 331.58 59.27 336.01 57.11 Z" />
</g>
<g id="#f77758ff">
<path fill="#f77758" opacity="1.00" d=" M 85.74 105.51 C 93.75 104.15 101.91 104.77 110.00 104.63 C 137.66 104.89 165.33 104.84 193.00 104.70 C 199.81 104.83 207.18 104.92 213.02 108.92 C 221.44 113.30 227.40 121.35 230.92 129.98 C 230.84 131.39 230.73 132.80 230.60 134.21 C 228.10 129.79 226.67 124.68 223.04 120.97 C 220.87 118.52 217.14 118.52 214.87 116.21 C 211.88 113.03 207.86 110.94 203.70 109.80 C 199.99 109.59 196.29 109.44 192.66 108.58 C 190.21 107.80 188.58 110.24 186.95 111.61 C 192.69 111.70 198.57 111.54 204.12 113.25 C 207.27 114.56 210.34 116.11 213.22 117.95 C 215.26 119.83 212.76 122.09 211.67 123.72 C 209.75 125.85 210.62 128.87 210.78 131.43 C 209.16 130.79 207.46 130.38 205.72 130.42 C 207.11 132.36 208.77 134.13 209.85 136.27 C 210.20 138.85 209.35 141.40 208.95 143.93 C 207.89 148.88 208.14 153.97 208.20 159.00 C 208.33 185.33 208.35 211.66 208.22 238.00 C 208.11 243.62 208.83 249.40 207.09 254.86 L 206.17 254.95 C 206.63 247.31 206.40 239.65 206.44 232.00 C 206.52 201.99 206.48 171.99 206.36 141.98 C 206.09 138.57 206.43 134.21 203.42 131.88 C 200.50 130.54 197.17 130.60 194.02 130.47 C 161.00 130.32 127.97 130.06 94.95 130.26 C 91.58 130.24 88.28 130.98 85.05 131.87 C 85.03 130.38 84.94 128.90 84.84 127.42 C 83.57 126.56 82.31 125.70 81.05 124.83 C 82.02 120.81 82.32 116.66 83.57 112.71 C 81.10 110.83 77.56 110.07 74.82 111.85 C 71.68 114.00 68.93 116.66 65.87 118.91 C 67.73 115.27 71.00 112.54 74.40 110.38 C 78.11 108.63 81.59 106.11 85.74 105.51 Z" />
</g>
<g id="#fa7c5aff">
<path fill="#fa7c5a" opacity="1.00" d=" M 186.95 111.61 C 188.58 110.24 190.21 107.80 192.66 108.58 C 196.29 109.44 199.99 109.59 203.70 109.80 C 207.86 110.94 211.88 113.03 214.87 116.21 C 217.14 118.52 220.87 118.52 223.04 120.97 C 226.67 124.68 228.10 129.79 230.60 134.21 C 230.73 132.80 230.84 131.39 230.92 129.98 C 232.27 132.42 232.63 135.21 232.61 137.96 C 232.85 157.64 232.72 177.32 232.78 197.00 C 233.73 216.16 232.84 235.37 233.48 254.55 C 264.65 255.11 295.82 254.78 326.99 254.75 C 336.19 254.84 345.45 254.23 354.59 255.62 C 361.26 256.65 366.54 261.28 371.60 265.41 C 377.79 272.04 383.02 280.61 382.54 290.01 C 382.48 324.34 382.60 358.66 382.57 392.98 C 383.01 401.50 379.30 409.67 374.35 416.38 C 370.35 421.80 364.68 426.07 358.24 428.11 C 350.00 430.14 341.45 430.49 333.00 430.35 C 277.67 429.97 222.33 430.51 167.00 430.28 C 143.67 430.18 120.34 430.52 97.00 430.32 C 89.97 429.91 82.30 430.08 76.42 425.58 C 71.27 421.53 65.35 417.82 62.30 411.79 C 60.42 408.14 58.78 404.32 57.73 400.35 C 56.14 390.65 56.63 380.79 56.56 371.00 C 56.56 296.00 56.59 221.01 56.54 146.01 C 56.69 141.02 56.59 135.85 58.21 131.08 C 60.26 126.76 62.13 122.07 65.87 118.91 C 68.93 116.66 71.68 114.00 74.82 111.85 C 77.56 110.07 81.10 110.83 83.57 112.71 C 82.32 116.66 82.02 120.81 81.05 124.83 C 82.31 125.70 83.57 126.56 84.84 127.42 C 84.94 128.90 85.03 130.38 85.05 131.87 C 82.26 138.91 82.77 146.59 82.70 154.01 C 82.67 179.34 82.77 204.67 82.78 230.00 C 82.59 238.23 83.53 246.43 83.36 254.66 C 124.29 254.98 165.25 254.63 206.17 254.95 L 207.09 254.86 C 208.83 249.40 208.11 243.62 208.22 238.00 C 208.35 211.66 208.33 185.33 208.20 159.00 C 208.14 153.97 207.89 148.88 208.95 143.93 C 209.35 141.40 210.20 138.85 209.85 136.27 C 208.77 134.13 207.11 132.36 205.72 130.42 C 207.46 130.38 209.16 130.79 210.78 131.43 C 210.62 128.87 209.75 125.85 211.67 123.72 C 212.76 122.09 215.26 119.83 213.22 117.95 C 210.34 116.11 207.27 114.56 204.12 113.25 C 198.57 111.54 192.69 111.70 186.95 111.61 M 82.55 279.56 C 81.61 282.60 82.07 285.86 81.92 289.00 C 82.31 320.67 81.85 352.34 82.28 384.00 C 82.62 389.00 82.39 394.35 84.17 399.04 C 84.49 400.49 85.70 401.45 86.92 402.16 C 90.67 404.94 95.54 404.55 99.94 405.16 C 106.26 405.95 112.64 405.57 119.00 405.64 C 147.32 405.66 175.64 405.64 203.97 405.65 C 207.03 406.08 207.71 402.32 207.64 400.03 C 207.66 360.07 207.56 320.10 207.70 280.14 C 206.16 279.76 204.61 279.38 203.02 279.35 C 168.68 279.37 134.34 279.34 100.00 279.28 C 94.19 279.40 88.31 278.60 82.55 279.56 M 232.45 279.46 C 231.74 318.99 232.51 358.52 232.32 398.05 C 232.24 400.15 232.39 402.36 233.91 403.98 L 233.90 404.80 C 251.93 404.71 269.97 404.85 288.00 404.81 C 307.26 405.62 326.54 405.17 345.80 404.53 C 349.72 404.41 353.87 402.38 355.30 398.53 C 356.55 394.48 356.47 390.18 356.50 385.99 C 356.49 358.32 356.53 330.66 356.41 302.99 C 356.34 296.82 356.66 290.57 355.36 284.49 C 354.59 283.28 353.37 282.41 352.12 281.76 C 347.55 278.93 342.02 280.42 336.98 279.94 C 325.68 278.93 314.32 279.52 302.99 279.35 C 279.48 279.50 255.96 279.02 232.45 279.46 Z" />
</g>
<g id="#323233ff">
</g>
<g id="#a65344ff">
</g>
<g id="#975243ff">
</g>
<g id="#323133ff">
</g>
</svg>
