<?xml version="1.0" encoding="UTF-8" ?>
<!DOCTYPE svg PUBLIC "-//W3C//DTD SVG 1.1//EN" "http://www.w3.org/Graphics/SVG/1.1/DTD/svg11.dtd">
<svg width="512pt" height="512pt" viewBox="0 0 512 512" version="1.1" xmlns="http://www.w3.org/2000/svg">
<g id="#ffffffff">
<path fill="#ffffff" opacity="1.00" d=" M 242.04 186.69 C 244.67 186.10 247.31 185.51 249.97 184.99 C 250.90 187.75 251.20 190.75 252.56 193.33 C 255.76 194.50 259.38 193.95 262.56 195.33 C 268.10 197.41 271.76 202.47 274.40 207.53 C 271.82 208.11 269.27 208.79 266.72 209.47 C 264.55 206.64 262.05 203.77 258.58 202.55 C 252.36 200.55 245.08 202.98 241.14 208.14 C 238.76 211.24 238.52 215.88 240.88 219.05 C 243.44 222.54 247.87 224.00 252.06 224.13 C 260.26 225.01 269.49 224.20 276.34 229.66 C 283.53 234.72 286.65 245.25 282.15 253.06 C 279.46 258.66 273.78 261.58 268.94 264.99 C 265.39 267.26 268.67 271.79 268.68 275.04 C 266.03 275.46 263.39 275.95 260.74 276.38 C 260.21 273.86 259.91 271.27 259.08 268.84 C 257.76 266.90 255.02 267.83 253.05 267.41 C 245.10 267.27 238.26 261.43 235.51 254.20 C 238.59 253.52 241.68 252.89 244.79 252.30 C 246.91 255.31 248.70 259.04 252.32 260.50 C 257.28 262.49 262.92 261.15 267.47 258.71 C 272.29 256.08 276.02 250.70 275.31 245.04 C 274.35 238.65 268.54 234.13 262.53 232.74 C 252.49 230.50 241.43 230.35 232.72 224.24 C 226.52 219.62 227.51 210.18 231.36 204.37 C 234.04 200.12 238.82 198.29 242.92 195.82 C 243.79 192.84 242.31 189.71 242.04 186.69 Z" />
</g>
<g id="#020401ff">
<path fill="#020401" opacity="1.00" d=" M 374.15 108.18 C 389.40 105.22 404.47 100.96 420.01 99.75 C 423.74 99.30 428.20 100.28 429.87 104.04 C 432.51 110.12 433.92 116.65 435.72 123.02 C 434.77 123.19 433.83 123.37 432.89 123.54 C 432.35 123.63 431.27 123.82 430.73 123.91 C 429.06 118.06 427.72 112.06 425.41 106.42 C 424.55 104.37 421.90 104.82 420.13 104.80 C 408.80 105.67 397.75 108.45 386.66 110.75 C 320.98 125.21 254.96 138.07 189.25 152.36 C 155.58 160.02 121.46 165.49 87.68 172.65 C 87.34 171.29 87.00 169.94 86.66 168.59 C 87.43 168.16 88.20 167.74 88.96 167.31 C 115.88 161.13 143.20 156.91 170.21 151.18 C 238.08 136.33 306.21 122.70 374.15 108.18 Z" />
<path fill="#020401" opacity="1.00" d=" M 367.97 126.03 C 371.47 125.38 374.96 124.09 378.57 124.40 C 380.36 127.73 381.18 131.54 383.43 134.64 C 389.28 143.30 399.46 149.33 410.03 149.24 C 413.03 149.23 415.97 148.48 418.96 148.32 C 420.61 148.68 420.71 150.70 421.14 152.01 C 427.70 181.43 434.31 210.84 441.23 240.19 C 440.98 240.72 440.48 241.78 440.23 242.31 C 434.31 243.51 428.13 244.49 422.92 247.75 C 416.40 251.99 411.70 258.93 410.44 266.63 C 409.28 271.05 410.97 275.55 410.17 279.99 C 380.46 286.48 350.75 292.93 321.03 299.40 C 290.46 306.04 259.76 312.12 229.16 318.64 C 195.95 325.24 162.89 332.70 129.54 338.54 C 127.69 334.34 127.03 329.58 124.13 325.90 C 120.92 321.79 117.45 317.30 112.20 315.80 C 106.92 314.31 101.43 312.69 95.88 313.47 C 93.97 313.55 90.81 314.49 90.27 311.83 C 83.78 281.86 78.20 251.68 71.06 221.86 C 71.24 221.32 71.61 220.26 71.80 219.73 C 76.74 218.37 82.09 217.51 86.22 214.23 C 92.12 209.61 95.39 202.40 96.67 195.16 C 97.37 190.90 97.09 186.58 97.22 182.30 C 118.29 177.06 139.77 173.64 161.02 169.23 C 180.05 165.68 198.90 161.31 217.86 157.42 C 267.85 146.75 317.98 136.72 367.97 126.03 M 316.88 142.22 C 278.71 149.86 240.65 158.03 202.54 165.95 C 169.30 173.52 135.64 179.05 102.34 186.31 C 102.60 197.20 99.52 208.72 91.51 216.48 C 87.60 220.59 82.09 222.46 76.77 223.95 C 83.15 252.02 88.67 280.27 94.70 308.42 C 101.67 307.81 108.61 309.33 115.15 311.68 C 117.24 312.46 119.23 313.55 120.93 315.02 C 126.30 319.82 130.90 325.76 132.77 332.83 C 159.55 328.00 186.13 322.07 212.83 316.79 C 249.91 308.95 287.11 301.65 324.13 293.57 C 351.16 287.68 378.18 281.80 405.22 275.95 C 404.18 266.23 407.04 255.98 413.92 248.87 C 419.43 242.74 427.44 239.75 435.36 238.25 C 428.95 210.24 422.52 182.23 416.41 154.15 C 410.05 154.92 403.46 154.73 397.47 152.30 C 387.54 148.26 379.06 140.17 375.53 129.94 C 355.92 133.74 336.45 138.23 316.88 142.22 Z" />
<path fill="#020401" opacity="1.00" d=" M 432.66 132.98 C 433.20 132.86 434.28 132.62 434.82 132.51 C 435.52 132.35 436.91 132.05 437.60 131.90 C 448.11 179.29 458.51 226.72 469.93 273.91 C 470.73 279.22 466.18 283.19 461.61 284.77 C 461.04 322.84 460.91 360.92 461.02 398.99 C 461.06 402.31 460.92 406.02 458.56 408.62 C 455.97 411.58 451.86 412.38 448.10 412.56 C 441.59 412.79 435.07 412.77 428.56 412.92 L 428.72 412.65 C 428.81 412.50 428.98 412.18 429.07 412.03 C 429.09 411.04 429.15 409.06 429.18 408.07 C 435.49 407.86 441.80 407.89 448.11 407.65 C 450.75 407.47 454.05 407.19 455.50 404.60 C 456.14 402.80 456.04 400.85 456.12 398.97 C 456.02 384.09 456.12 369.20 456.07 354.31 C 456.03 352.69 455.99 351.08 455.96 349.46 C 451.48 352.18 446.30 353.18 441.15 353.58 C 441.07 354.76 441.00 355.95 440.94 357.15 C 440.74 360.19 441.07 363.32 440.22 366.29 C 434.45 367.35 428.40 365.97 422.71 367.77 C 414.08 370.37 406.92 377.40 404.21 386.01 C 403.11 389.38 402.83 392.93 402.24 396.41 C 375.50 396.49 348.75 395.76 322.01 395.50 C 285.67 395.14 249.35 393.97 213.03 393.15 C 182.68 392.37 152.33 391.71 121.99 390.76 C 119.92 390.64 117.81 390.71 115.79 390.20 C 114.08 389.26 114.75 386.97 114.31 385.38 C 114.09 384.71 113.65 383.37 113.43 382.70 C 101.29 383.22 89.18 384.40 77.04 385.07 C 73.39 385.24 69.76 384.72 66.17 384.13 C 66.12 385.36 66.07 386.59 66.02 387.83 C 66.27 391.23 64.91 395.59 67.52 398.29 C 74.76 401.42 82.92 400.21 90.60 400.90 C 90.61 401.49 90.64 402.68 90.65 403.28 C 90.66 403.93 90.69 405.23 90.70 405.88 C 83.16 405.46 75.47 405.87 68.10 403.96 C 64.37 403.05 61.17 399.92 60.79 396.00 C 60.24 390.65 61.05 385.26 60.81 379.90 C 60.51 377.60 59.86 375.36 59.69 373.04 C 56.49 335.38 53.34 297.71 50.15 260.05 C 49.10 246.63 47.32 233.27 46.26 219.85 C 45.81 214.90 46.47 209.92 45.92 204.99 C 44.76 199.04 44.07 193.01 43.60 186.97 C 43.15 183.69 45.44 180.83 48.12 179.25 C 57.41 174.33 67.80 172.35 77.96 170.10 L 78.33 171.71 C 78.58 172.81 78.83 173.91 79.09 175.02 C 69.64 177.08 60.00 178.85 51.28 183.20 C 50.29 183.96 48.24 184.34 48.48 185.95 C 48.75 195.10 50.66 204.09 52.77 212.97 C 58.90 239.56 64.24 266.32 69.85 293.02 C 74.16 312.71 77.62 332.58 81.94 352.27 C 82.47 354.17 82.94 356.57 85.07 357.32 C 89.32 358.12 93.64 357.22 97.83 356.48 C 161.39 344.41 224.61 330.57 288.06 317.88 C 320.43 311.28 352.65 303.94 384.96 297.03 C 407.30 291.98 429.81 287.65 451.96 281.78 C 455.67 280.75 459.64 280.12 462.90 277.96 C 465.45 275.88 464.11 272.27 463.63 269.57 C 452.80 224.16 442.87 178.53 432.66 132.98 M 52.41 234.85 C 54.00 247.04 54.78 259.33 56.09 271.54 C 58.56 305.01 61.66 338.44 64.34 371.89 C 64.72 374.26 64.44 377.74 67.16 378.80 C 70.34 379.72 73.70 379.59 76.98 379.58 C 123.78 376.77 170.47 372.44 217.20 368.74 C 250.79 365.87 284.42 363.46 317.97 360.16 C 343.31 357.79 368.64 355.42 393.97 353.04 C 411.68 351.41 429.41 349.84 447.01 347.19 C 449.43 346.76 452.50 345.87 453.19 343.14 C 453.63 340.06 453.00 336.97 452.72 333.91 C 451.01 319.59 449.63 305.24 447.95 290.93 C 447.86 290.26 447.69 288.93 447.60 288.27 C 442.74 289.70 437.67 290.38 432.87 291.98 C 432.88 292.56 432.89 293.72 432.90 294.29 C 433.13 298.73 434.09 303.12 433.73 307.58 C 429.22 308.19 424.62 308.21 420.19 309.30 C 411.87 311.25 404.84 317.54 401.56 325.37 C 399.10 330.37 399.51 336.01 398.64 341.36 C 305.51 350.50 212.24 358.26 118.94 365.45 C 116.94 365.57 114.90 365.83 112.92 365.35 C 112.46 364.20 112.06 363.03 111.73 361.85 C 111.73 361.18 111.74 359.84 111.74 359.17 C 102.71 360.67 93.66 363.70 84.42 362.46 C 80.43 361.94 78.02 358.13 77.40 354.45 C 69.06 314.59 60.89 274.68 52.41 234.85 M 453.21 286.58 C 453.79 295.43 455.14 304.20 455.55 313.06 C 455.96 304.07 456.10 295.07 456.17 286.07 C 455.43 286.20 453.95 286.46 453.21 286.58 M 305.88 319.29 C 303.75 319.70 301.55 320.29 300.05 321.97 C 281.79 339.80 253.26 345.91 229.19 337.62 C 227.18 337.03 225.13 335.95 222.98 336.47 C 191.33 342.96 159.72 349.65 128.03 355.92 C 123.90 356.86 119.47 356.90 115.71 359.06 C 117.73 359.84 119.89 360.16 122.05 359.91 C 157.71 357.42 193.33 354.29 228.96 351.40 C 284.13 347.06 339.23 341.75 394.33 336.58 C 394.26 325.92 399.57 315.43 408.23 309.22 C 414.14 304.64 421.73 303.46 428.98 302.85 C 428.65 299.55 428.29 296.26 427.80 292.98 C 387.09 301.40 346.55 310.67 305.88 319.29 M 235.03 334.18 C 237.35 334.75 239.67 335.31 242.00 335.84 C 257.40 337.77 273.71 334.87 286.70 326.14 C 288.70 325.16 290.38 323.64 292.13 322.28 C 273.08 326.19 254.01 329.96 235.03 334.18 M 306.83 366.17 C 305.08 366.28 303.75 367.50 302.37 368.43 C 283.07 382.36 256.41 384.87 234.63 375.48 C 231.84 374.42 229.13 372.48 226.00 373.01 C 197.32 375.46 168.63 377.72 139.95 380.12 C 132.85 380.64 125.77 381.45 118.65 381.42 C 118.68 382.49 118.72 383.56 118.76 384.64 C 157.13 386.29 195.53 386.73 233.91 387.96 C 288.27 389.64 342.64 390.25 397.01 390.99 C 398.35 379.80 405.22 369.27 415.52 364.43 C 421.53 361.13 428.52 361.14 435.17 361.10 C 435.08 358.71 434.98 356.32 434.87 353.93 C 392.24 358.42 349.49 361.97 306.83 366.17 M 239.97 372.15 C 243.03 373.06 246.03 374.41 249.24 374.68 C 261.62 377.39 274.91 376.22 286.62 371.34 C 289.55 370.42 292.21 368.84 294.93 367.44 C 276.62 369.11 258.24 370.07 239.97 372.15 Z" />
<path fill="#020401" opacity="1.00" d=" M 248.28 164.36 C 266.40 162.24 285.62 166.38 300.16 177.72 C 310.22 185.60 317.63 196.68 321.37 208.87 C 327.38 228.06 324.73 249.89 313.96 266.92 C 299.15 290.90 268.39 303.00 241.06 296.98 C 225.37 293.60 211.13 284.29 201.48 271.50 C 190.13 256.62 184.57 237.15 187.39 218.56 C 189.21 205.75 195.33 193.66 204.49 184.53 C 216.20 172.99 232.05 166.24 248.28 164.36 M 246.36 169.55 C 231.50 171.87 216.90 178.38 206.61 189.56 C 197.62 199.12 192.42 212.01 191.79 225.09 C 190.98 242.01 197.11 259.08 208.26 271.80 C 218.71 284.02 234.03 291.95 250.09 293.16 C 274.03 295.36 299.17 283.20 311.02 262.03 C 320.32 245.91 322.04 225.71 315.88 208.18 C 311.43 195.34 302.44 184.10 290.68 177.24 C 277.42 169.54 261.42 167.37 246.36 169.55 Z" />
<path fill="#020401" opacity="1.00" d=" M 237.32 184.18 C 240.83 181.31 245.80 181.34 250.07 180.41 C 254.82 180.21 255.04 186.11 256.21 189.42 C 259.75 189.97 263.44 190.41 266.60 192.26 C 272.09 195.40 276.07 200.67 278.81 206.28 C 280.27 208.80 278.35 211.94 275.76 212.69 C 272.65 213.71 269.37 214.30 266.10 214.37 C 261.98 213.65 260.68 208.53 256.79 207.28 C 252.27 205.89 246.46 207.84 244.42 212.28 C 242.97 215.41 246.22 218.23 249.09 218.67 C 255.34 219.78 261.74 219.83 268.00 220.88 C 276.09 222.25 283.18 227.81 286.93 235.04 C 290.32 241.86 289.98 250.46 285.79 256.87 C 282.78 262.30 277.35 265.56 272.35 268.92 C 272.61 272.27 275.32 277.21 271.65 279.50 C 267.15 280.96 262.39 281.71 257.65 281.67 C 255.89 279.13 255.14 276.12 254.65 273.12 C 245.54 272.89 236.29 268.07 232.25 259.66 C 230.80 257.09 228.95 253.25 231.98 251.02 C 235.90 248.69 240.66 248.24 245.10 247.67 C 250.10 248.30 250.42 255.65 255.40 256.58 C 261.13 257.36 267.75 254.42 269.84 248.78 C 271.32 243.80 266.65 239.28 262.11 238.23 C 252.50 235.76 242.13 235.78 233.25 230.87 C 228.43 228.69 224.39 224.45 223.45 219.12 C 222.00 210.95 225.01 201.81 231.82 196.82 C 233.67 195.37 235.90 194.48 237.66 192.92 C 237.56 190.01 236.59 187.08 237.32 184.18 M 242.04 186.69 C 242.31 189.71 243.79 192.84 242.92 195.82 C 238.82 198.29 234.04 200.12 231.36 204.37 C 227.51 210.18 226.52 219.62 232.72 224.24 C 241.43 230.35 252.49 230.50 262.53 232.74 C 268.54 234.13 274.35 238.65 275.31 245.04 C 276.02 250.70 272.29 256.08 267.47 258.71 C 262.92 261.15 257.28 262.49 252.32 260.50 C 248.70 259.04 246.91 255.31 244.79 252.30 C 241.68 252.89 238.59 253.52 235.51 254.20 C 238.26 261.43 245.10 267.27 253.05 267.41 C 255.02 267.83 257.76 266.90 259.08 268.84 C 259.91 271.27 260.21 273.86 260.74 276.38 C 263.39 275.95 266.03 275.46 268.68 275.04 C 268.67 271.79 265.39 267.26 268.94 264.99 C 273.78 261.58 279.46 258.66 282.15 253.06 C 286.65 245.25 283.53 234.72 276.34 229.66 C 269.49 224.20 260.26 225.01 252.06 224.13 C 247.87 224.00 243.44 222.54 240.88 219.05 C 238.52 215.88 238.76 211.24 241.14 208.14 C 245.08 202.98 252.36 200.55 258.58 202.55 C 262.05 203.77 264.55 206.64 266.72 209.47 C 269.27 208.79 271.82 208.11 274.40 207.53 C 271.76 202.47 268.10 197.41 262.56 195.33 C 259.38 193.95 255.76 194.50 252.56 193.33 C 251.20 190.75 250.90 187.75 249.97 184.99 C 247.31 185.51 244.67 186.10 242.04 186.69 Z" />
<path fill="#020401" opacity="1.00" d=" M 371.24 188.31 C 377.35 187.97 384.40 189.51 388.22 194.71 C 394.33 201.63 393.09 212.77 387.43 219.57 C 384.67 223.04 380.24 224.53 375.98 225.08 C 367.07 226.41 357.73 220.58 354.87 212.07 C 352.39 205.43 354.74 197.59 359.96 192.95 C 363.04 190.14 367.20 188.91 371.24 188.31 M 370.49 193.61 C 365.08 194.35 360.27 198.54 359.35 204.01 C 357.21 213.61 367.84 222.64 377.06 219.92 C 388.14 218.31 390.96 201.08 381.79 195.30 C 378.37 193.48 374.29 192.83 370.49 193.61 Z" />
<path fill="#020401" opacity="1.00" d=" M 133.34 237.45 C 138.75 235.88 144.72 236.73 149.69 239.30 C 154.22 242.32 157.74 247.38 157.93 252.94 C 158.72 262.17 152.72 272.34 142.91 273.32 C 132.13 275.73 120.23 267.00 119.64 255.90 C 118.93 247.46 125.03 239.17 133.34 237.45 M 137.49 241.72 C 131.71 242.09 126.02 246.08 125.03 252.01 C 122.66 261.52 133.01 270.70 142.23 268.29 C 152.00 267.35 155.96 253.73 150.30 246.55 C 147.61 242.37 142.12 241.30 137.49 241.72 Z" />
<path fill="#020401" opacity="1.00" d=" M 99.43 400.68 C 111.63 401.21 123.83 401.62 136.04 401.98 C 204.35 403.40 272.64 406.05 340.97 406.69 C 367.21 406.97 393.46 407.63 419.70 407.39 C 419.65 408.07 419.55 409.42 419.50 410.10 C 419.46 410.70 419.36 411.90 419.32 412.51 C 365.20 411.73 311.08 411.34 256.98 409.96 C 204.47 408.48 151.96 407.56 99.47 405.69 C 99.46 405.14 99.46 404.03 99.45 403.47 C 99.45 402.54 99.44 401.61 99.43 400.68 Z" />
</g>
<g id="#66cc9aff">
<path fill="#66cc9a" opacity="1.00" d=" M 386.66 110.75 C 397.75 108.45 408.80 105.67 420.13 104.80 C 421.90 104.82 424.55 104.37 425.41 106.42 C 427.72 112.06 429.06 118.06 430.73 123.91 C 431.27 123.82 432.35 123.63 432.89 123.54 C 433.45 126.54 434.12 129.53 434.82 132.51 C 434.28 132.62 433.20 132.86 432.66 132.98 C 442.87 178.53 452.80 224.16 463.63 269.57 C 464.11 272.27 465.45 275.88 462.90 277.96 C 459.64 280.12 455.67 280.75 451.96 281.78 C 429.81 287.65 407.30 291.98 384.96 297.03 C 352.65 303.94 320.43 311.28 288.06 317.88 C 224.61 330.57 161.39 344.41 97.83 356.48 C 93.64 357.22 89.32 358.12 85.07 357.32 C 82.94 356.57 82.47 354.17 81.94 352.27 C 77.62 332.58 74.16 312.71 69.85 293.02 C 64.24 266.32 58.90 239.56 52.77 212.97 C 50.66 204.09 48.75 195.10 48.48 185.95 C 48.24 184.34 50.29 183.96 51.28 183.20 C 60.00 178.85 69.64 177.08 79.09 175.02 C 78.83 173.91 78.58 172.81 78.33 171.71 C 81.10 171.09 83.88 170.51 86.69 170.07 C 86.65 169.25 86.57 167.61 86.53 166.79 C 87.14 166.92 88.35 167.18 88.96 167.31 C 88.20 167.74 87.43 168.16 86.66 168.59 C 87.00 169.94 87.34 171.29 87.68 172.65 C 121.46 165.49 155.58 160.02 189.25 152.36 C 254.96 138.07 320.98 125.21 386.66 110.75 M 367.97 126.03 C 317.98 136.72 267.85 146.75 217.86 157.42 C 198.90 161.31 180.05 165.68 161.02 169.23 C 139.77 173.64 118.29 177.06 97.22 182.30 C 97.09 186.58 97.37 190.90 96.67 195.16 C 95.39 202.40 92.12 209.61 86.22 214.23 C 82.09 217.51 76.74 218.37 71.80 219.73 C 71.61 220.26 71.24 221.32 71.06 221.86 C 78.20 251.68 83.78 281.86 90.27 311.83 C 90.81 314.49 93.97 313.55 95.88 313.47 C 101.43 312.69 106.92 314.31 112.20 315.80 C 117.45 317.30 120.92 321.79 124.13 325.90 C 127.03 329.58 127.69 334.34 129.54 338.54 C 162.89 332.70 195.95 325.24 229.16 318.64 C 259.76 312.12 290.46 306.04 321.03 299.40 C 350.75 292.93 380.46 286.48 410.17 279.99 C 410.97 275.55 409.28 271.05 410.44 266.63 C 411.70 258.93 416.40 251.99 422.92 247.75 C 428.13 244.49 434.31 243.51 440.23 242.31 C 440.48 241.78 440.98 240.72 441.23 240.19 C 434.31 210.84 427.70 181.43 421.14 152.01 C 420.71 150.70 420.61 148.68 418.96 148.32 C 415.97 148.48 413.03 149.23 410.03 149.24 C 399.46 149.33 389.28 143.30 383.43 134.64 C 381.18 131.54 380.36 127.73 378.57 124.40 C 374.96 124.09 371.47 125.38 367.97 126.03 Z" />
<path fill="#66cc9a" opacity="1.00" d=" M 246.36 169.55 C 261.42 167.37 277.42 169.54 290.68 177.24 C 302.44 184.10 311.43 195.34 315.88 208.18 C 322.04 225.71 320.32 245.91 311.02 262.03 C 299.17 283.20 274.03 295.36 250.09 293.16 C 234.03 291.95 218.71 284.02 208.26 271.80 C 197.11 259.08 190.98 242.01 191.79 225.09 C 192.42 212.01 197.62 199.12 206.61 189.56 C 216.90 178.38 231.50 171.87 246.36 169.55 M 237.32 184.18 C 236.59 187.08 237.56 190.01 237.66 192.92 C 235.90 194.48 233.67 195.37 231.82 196.82 C 225.01 201.81 222.00 210.95 223.45 219.12 C 224.39 224.45 228.43 228.69 233.25 230.87 C 242.13 235.78 252.50 235.76 262.11 238.23 C 266.65 239.28 271.32 243.80 269.84 248.78 C 267.75 254.42 261.13 257.36 255.40 256.58 C 250.42 255.65 250.10 248.30 245.10 247.67 C 240.66 248.24 235.90 248.69 231.98 251.02 C 228.95 253.25 230.80 257.09 232.25 259.66 C 236.29 268.07 245.54 272.89 254.65 273.12 C 255.14 276.12 255.89 279.13 257.65 281.67 C 262.39 281.71 267.15 280.96 271.65 279.50 C 275.32 277.21 272.61 272.27 272.35 268.92 C 277.35 265.56 282.78 262.30 285.79 256.87 C 289.98 250.46 290.32 241.86 286.93 235.04 C 283.18 227.81 276.09 222.25 268.00 220.88 C 261.74 219.83 255.34 219.78 249.09 218.67 C 246.22 218.23 242.97 215.41 244.42 212.28 C 246.46 207.84 252.27 205.89 256.79 207.28 C 260.68 208.53 261.98 213.65 266.10 214.37 C 269.37 214.30 272.65 213.71 275.76 212.69 C 278.35 211.94 280.27 208.80 278.81 206.28 C 276.07 200.67 272.09 195.40 266.60 192.26 C 263.44 190.41 259.75 189.97 256.21 189.42 C 255.04 186.11 254.82 180.21 250.07 180.41 C 245.80 181.34 240.83 181.31 237.32 184.18 Z" />
<path fill="#66cc9a" opacity="1.00" d=" M 370.49 193.61 C 374.29 192.83 378.37 193.48 381.79 195.30 C 390.96 201.08 388.14 218.31 377.06 219.92 C 367.84 222.64 357.21 213.61 359.35 204.01 C 360.27 198.54 365.08 194.35 370.49 193.61 Z" />
<path fill="#66cc9a" opacity="1.00" d=" M 137.49 241.72 C 142.12 241.30 147.61 242.37 150.30 246.55 C 155.96 253.73 152.00 267.35 142.23 268.29 C 133.01 270.70 122.66 261.52 125.03 252.01 C 126.02 246.08 131.71 242.09 137.49 241.72 Z" />
<path fill="#66cc9a" opacity="1.00" d=" M 56.09 271.54 C 62.59 301.33 68.58 331.24 74.87 361.07 C 75.24 364.19 77.33 367.40 80.88 366.99 C 91.33 366.73 101.46 363.59 111.73 361.85 C 112.06 363.03 112.46 364.20 112.92 365.35 C 114.90 365.83 116.94 365.57 118.94 365.45 C 212.24 358.26 305.51 350.50 398.64 341.36 C 399.51 336.01 399.10 330.37 401.56 325.37 C 404.84 317.54 411.87 311.25 420.19 309.30 C 424.62 308.21 429.22 308.19 433.73 307.58 C 434.09 303.12 433.13 298.73 432.90 294.29 C 438.05 293.87 443.03 292.45 447.95 290.93 C 449.63 305.24 451.01 319.59 452.72 333.91 C 453.00 336.97 453.63 340.06 453.19 343.14 C 452.50 345.87 449.43 346.76 447.01 347.19 C 429.41 349.84 411.68 351.41 393.97 353.04 C 368.64 355.42 343.31 357.79 317.97 360.16 C 284.42 363.46 250.79 365.87 217.20 368.74 C 170.47 372.44 123.78 376.77 76.98 379.58 C 73.70 379.59 70.34 379.72 67.16 378.80 C 64.44 377.74 64.72 374.26 64.34 371.89 C 61.66 338.44 58.56 305.01 56.09 271.54 Z" />
<path fill="#66cc9a" opacity="1.00" d=" M 259.72 331.72 C 268.68 329.71 277.70 327.98 286.70 326.14 C 273.71 334.87 257.40 337.77 242.00 335.84 C 247.72 333.72 253.78 332.96 259.72 331.72 Z" />
<path fill="#66cc9a" opacity="1.00" d=" M 440.94 357.15 C 446.06 356.80 451.37 356.63 456.07 354.31 C 456.12 369.20 456.02 384.09 456.12 398.97 C 456.04 400.85 456.14 402.80 455.50 404.60 C 454.05 407.19 450.75 407.47 448.11 407.65 C 441.80 407.89 435.49 407.86 429.18 408.07 C 429.15 409.06 429.09 411.04 429.07 412.03 C 428.98 412.18 428.81 412.50 428.72 412.65 C 427.96 412.26 427.50 411.50 427.33 410.37 C 424.72 410.39 422.10 410.35 419.50 410.10 C 419.55 409.42 419.65 408.07 419.70 407.39 C 393.46 407.63 367.21 406.97 340.97 406.69 C 272.64 406.05 204.35 403.40 136.04 401.98 C 123.83 401.62 111.63 401.21 99.43 400.68 C 99.44 401.61 99.45 402.54 99.45 403.47 C 96.52 403.41 93.58 403.34 90.65 403.28 C 90.64 402.68 90.61 401.49 90.60 400.90 C 82.92 400.21 74.76 401.42 67.52 398.29 C 64.91 395.59 66.27 391.23 66.02 387.83 C 72.67 388.41 79.35 388.22 85.98 387.62 C 95.42 386.81 104.90 386.42 114.31 385.38 C 114.75 386.97 114.08 389.26 115.79 390.20 C 117.81 390.71 119.92 390.64 121.99 390.76 C 152.33 391.71 182.68 392.37 213.03 393.15 C 249.35 393.97 285.67 395.14 322.01 395.50 C 348.75 395.76 375.50 396.49 402.24 396.41 C 402.83 392.93 403.11 389.38 404.21 386.01 C 406.92 377.40 414.08 370.37 422.71 367.77 C 428.40 365.97 434.45 367.35 440.22 366.29 C 441.07 363.32 440.74 360.19 440.94 357.15 Z" />
<path fill="#66cc9a" opacity="1.00" d=" M 249.24 374.68 C 261.68 373.37 274.18 372.66 286.62 371.34 C 274.91 376.22 261.62 377.39 249.24 374.68 Z" />
</g>
<g id="#339967ff">
<path fill="#339967" opacity="1.00" d=" M 316.88 142.22 C 336.45 138.23 355.92 133.74 375.53 129.94 C 379.06 140.17 387.54 148.26 397.47 152.30 C 403.46 154.73 410.05 154.92 416.41 154.15 C 422.52 182.23 428.95 210.24 435.36 238.25 C 427.44 239.75 419.43 242.74 413.92 248.87 C 407.04 255.98 404.18 266.23 405.22 275.95 C 378.18 281.80 351.16 287.68 324.13 293.57 C 287.11 301.65 249.91 308.95 212.83 316.79 C 186.13 322.07 159.55 328.00 132.77 332.83 C 130.90 325.76 126.30 319.82 120.93 315.02 C 119.23 313.55 117.24 312.46 115.15 311.68 C 108.61 309.33 101.67 307.81 94.70 308.42 C 88.67 280.27 83.15 252.02 76.77 223.95 C 82.09 222.46 87.60 220.59 91.51 216.48 C 99.52 208.72 102.60 197.20 102.34 186.31 C 135.64 179.05 169.30 173.52 202.54 165.95 C 240.65 158.03 278.71 149.86 316.88 142.22 M 248.28 164.36 C 232.05 166.24 216.20 172.99 204.49 184.53 C 195.33 193.66 189.21 205.75 187.39 218.56 C 184.57 237.15 190.13 256.62 201.48 271.50 C 211.13 284.29 225.37 293.60 241.06 296.98 C 268.39 303.00 299.15 290.90 313.96 266.92 C 324.73 249.89 327.38 228.06 321.37 208.87 C 317.63 196.68 310.22 185.60 300.16 177.72 C 285.62 166.38 266.40 162.24 248.28 164.36 M 371.24 188.31 C 367.20 188.91 363.04 190.14 359.96 192.95 C 354.74 197.59 352.39 205.43 354.87 212.07 C 357.73 220.58 367.07 226.41 375.98 225.08 C 380.24 224.53 384.67 223.04 387.43 219.57 C 393.09 212.77 394.33 201.63 388.22 194.71 C 384.40 189.51 377.35 187.97 371.24 188.31 M 133.34 237.45 C 125.03 239.17 118.93 247.46 119.64 255.90 C 120.23 267.00 132.13 275.73 142.91 273.32 C 152.72 272.34 158.72 262.17 157.93 252.94 C 157.74 247.38 154.22 242.32 149.69 239.30 C 144.72 236.73 138.75 235.88 133.34 237.45 Z" />
<path fill="#339967" opacity="1.00" d=" M 52.41 234.85 C 60.89 274.68 69.06 314.59 77.40 354.45 C 78.02 358.13 80.43 361.94 84.42 362.46 C 93.66 363.70 102.71 360.67 111.74 359.17 C 111.74 359.84 111.73 361.18 111.73 361.85 C 101.46 363.59 91.33 366.73 80.88 366.99 C 77.33 367.40 75.24 364.19 74.87 361.07 C 68.58 331.24 62.59 301.33 56.09 271.54 C 54.78 259.33 54.00 247.04 52.41 234.85 Z" />
<path fill="#339967" opacity="1.00" d=" M 453.21 286.58 C 453.95 286.46 455.43 286.20 456.17 286.07 C 456.10 295.07 455.96 304.07 455.55 313.06 C 455.14 304.20 453.79 295.43 453.21 286.58 Z" />
<path fill="#339967" opacity="1.00" d=" M 432.87 291.98 C 437.67 290.38 442.74 289.70 447.60 288.27 C 447.69 288.93 447.86 290.26 447.95 290.93 C 443.03 292.45 438.05 293.87 432.90 294.29 C 432.89 293.72 432.88 292.56 432.87 291.98 Z" />
<path fill="#339967" opacity="1.00" d=" M 305.88 319.29 C 346.55 310.67 387.09 301.40 427.80 292.98 C 428.29 296.26 428.65 299.55 428.98 302.85 C 421.73 303.46 414.14 304.64 408.23 309.22 C 399.57 315.43 394.26 325.92 394.33 336.58 C 339.23 341.75 284.13 347.06 228.96 351.40 C 193.33 354.29 157.71 357.42 122.05 359.91 C 119.89 360.16 117.73 359.84 115.71 359.06 C 119.47 356.90 123.90 356.86 128.03 355.92 C 159.72 349.65 191.33 342.96 222.98 336.47 C 225.13 335.95 227.18 337.03 229.19 337.62 C 253.26 345.91 281.79 339.80 300.05 321.97 C 301.55 320.29 303.75 319.70 305.88 319.29 Z" />
<path fill="#339967" opacity="1.00" d=" M 235.03 334.18 C 254.01 329.96 273.08 326.19 292.13 322.28 C 290.38 323.64 288.70 325.16 286.70 326.14 C 277.70 327.98 268.68 329.71 259.72 331.72 C 253.78 332.96 247.72 333.72 242.00 335.84 C 239.67 335.31 237.35 334.75 235.03 334.18 Z" />
<path fill="#339967" opacity="1.00" d=" M 441.15 353.58 C 446.30 353.18 451.48 352.18 455.96 349.46 C 455.99 351.08 456.03 352.69 456.07 354.31 C 451.37 356.63 446.06 356.80 440.94 357.15 C 441.00 355.95 441.07 354.76 441.15 353.58 Z" />
<path fill="#339967" opacity="1.00" d=" M 306.83 366.17 C 349.49 361.97 392.24 358.42 434.87 353.93 C 434.98 356.32 435.08 358.71 435.17 361.10 C 428.52 361.14 421.53 361.13 415.52 364.43 C 405.22 369.27 398.35 379.80 397.01 390.99 C 342.64 390.25 288.27 389.64 233.91 387.96 C 195.53 386.73 157.13 386.29 118.76 384.64 C 118.72 383.56 118.68 382.49 118.65 381.42 C 125.77 381.45 132.85 380.64 139.95 380.12 C 168.63 377.72 197.32 375.46 226.00 373.01 C 229.13 372.48 231.84 374.42 234.63 375.48 C 256.41 384.87 283.07 382.36 302.37 368.43 C 303.75 367.50 305.08 366.28 306.83 366.17 Z" />
<path fill="#339967" opacity="1.00" d=" M 239.97 372.15 C 258.24 370.07 276.62 369.11 294.93 367.44 C 292.21 368.84 289.55 370.42 286.62 371.34 C 274.18 372.66 261.68 373.37 249.24 374.68 C 246.03 374.41 243.03 373.06 239.97 372.15 Z" />
<path fill="#339967" opacity="1.00" d=" M 77.04 385.07 C 89.18 384.40 101.29 383.22 113.43 382.70 C 113.65 383.37 114.09 384.71 114.31 385.38 C 104.90 386.42 95.42 386.81 85.98 387.62 C 79.35 388.22 72.67 388.41 66.02 387.83 C 66.07 386.59 66.12 385.36 66.17 384.13 C 69.76 384.72 73.39 385.24 77.04 385.07 Z" />
</g>
</svg>
