<?xml version="1.0" encoding="UTF-8" ?>
<!DOCTYPE svg PUBLIC "-//W3C//DTD SVG 1.1//EN" "http://www.w3.org/Graphics/SVG/1.1/DTD/svg11.dtd">
<svg width="1100pt" height="1184pt" viewBox="0 0 1100 1184" version="1.1" xmlns="http://www.w3.org/2000/svg">
<g id="#ffffffff">
</g>
<g id="#ff8f07ff">
<path fill="#ff8f07" opacity="1.00" d=" M 507.98 33.95 C 528.26 23.54 552.00 14.38 574.02 25.94 C 621.54 48.68 666.11 77.35 712.37 102.57 C 737.20 116.90 762.68 130.38 787.16 145.17 C 759.72 148.47 737.73 168.76 713.39 180.44 C 699.25 190.53 679.25 194.28 668.80 207.85 C 629.01 186.26 589.87 163.14 550.00 141.92 C 441.03 201.20 333.86 264.12 225.37 324.45 C 206.45 336.50 180.11 347.87 178.82 373.76 C 177.01 385.46 176.66 397.31 175.93 409.11 C 170.27 404.07 164.97 411.16 160.88 414.85 C 136.77 446.83 102.94 472.53 87.18 510.03 C 86.91 510.20 86.38 510.56 86.11 510.73 C 83.34 501.61 71.96 500.79 64.99 496.03 C 48.54 487.00 27.08 476.00 26.54 454.54 C 25.30 413.06 26.33 371.49 26.02 329.98 C 25.47 314.11 38.57 301.87 51.03 294.08 C 202.97 206.77 355.29 119.94 507.98 33.95 Z" />
</g>
<g id="#fef8eeff">
</g>
<g id="#ff4c05ff">
<path fill="#ff4c05" opacity="1.00" d=" M 713.39 180.44 C 737.73 168.76 759.72 148.47 787.16 145.17 C 850.34 179.99 912.80 216.49 975.42 252.12 C 940.65 264.90 911.72 288.95 878.12 304.18 C 872.48 307.20 864.44 311.55 866.67 319.22 C 800.38 282.70 734.62 245.20 668.80 207.85 C 679.25 194.28 699.25 190.53 713.39 180.44 Z" />
</g>
<g id="#ff5107ff">
<path fill="#ff5107" opacity="1.00" d=" M 547.12 179.16 C 554.50 175.74 561.24 183.97 568.01 185.99 C 678.47 248.26 788.03 312.29 899.77 372.21 C 906.91 375.34 911.79 383.47 919.96 384.08 C 919.99 375.38 918.91 366.46 915.61 358.36 C 906.78 338.19 884.00 330.42 866.67 319.22 C 864.44 311.55 872.48 307.20 878.12 304.18 C 911.72 288.95 940.65 264.90 975.42 252.12 C 997.78 263.69 1019.92 276.52 1042.04 288.91 C 1057.28 297.10 1071.88 311.06 1074.04 328.98 C 1073.86 371.94 1074.18 414.91 1073.88 457.87 C 1066.97 481.42 1041.78 493.19 1021.06 502.04 C 1018.31 477.58 994.86 462.39 980.24 444.76 C 964.29 428.05 948.80 410.62 929.85 397.16 C 927.61 395.06 922.06 393.25 921.88 397.95 C 918.40 453.02 924.13 508.85 918.34 563.65 C 917.97 563.82 917.22 564.17 916.85 564.34 C 914.59 565.29 912.43 566.44 910.28 567.58 C 898.71 569.18 887.21 574.38 875.87 577.89 C 850.28 593.62 828.10 612.19 801.98 626.85 C 796.11 625.97 795.25 631.73 791.39 634.36 C 790.03 567.83 792.14 501.11 790.36 434.67 C 784.93 420.26 767.88 415.85 755.73 408.23 C 686.88 369.82 618.34 329.93 550.09 291.12 C 494.97 322.25 440.24 354.14 384.88 384.86 C 360.42 399.45 334.66 412.13 311.20 428.22 C 305.68 441.35 310.43 457.55 309.35 471.68 C 308.74 493.19 308.91 514.72 309.21 536.24 C 310.09 569.80 306.47 603.95 310.86 637.20 C 268.51 615.42 226.43 591.29 185.98 565.63 C 188.21 528.44 186.60 491.03 186.79 453.77 C 188.43 431.61 184.40 408.89 189.03 387.11 C 196.74 372.94 212.26 366.05 225.97 358.99 C 283.16 325.94 340.79 293.78 398.33 261.32 C 447.85 233.84 496.34 204.22 547.12 179.16 Z" />
<path fill="#ff5107" opacity="1.00" d=" M 160.88 414.85 C 164.97 411.16 170.27 404.07 175.93 409.11 C 175.86 458.87 176.43 508.64 175.63 558.39 C 145.55 543.45 116.91 525.68 87.18 510.03 C 102.94 472.53 136.77 446.83 160.88 414.85 Z" />
</g>
<g id="#eea5afff">
<path fill="#eea5af" opacity="1.00" d=" M 1074.04 328.98 C 1076.79 365.47 1073.23 406.00 1076.04 444.00 C 1074.94 447.57 1077.23 456.17 1073.88 457.87 C 1074.18 414.91 1073.86 371.94 1074.04 328.98 Z" />
</g>
<g id="#f4a276ff">
<path fill="#f4a276" opacity="1.00" d=" M 175.93 409.11 C 176.66 397.31 177.01 385.46 178.82 373.76 C 175.37 430.10 177.69 486.59 176.94 543.01 C 177.64 548.97 175.13 556.44 179.96 561.17 C 178.51 560.25 177.06 559.34 175.63 558.39 C 176.43 508.64 175.86 458.87 175.93 409.11 Z" />
</g>
<g id="#fe2501ff">
<path fill="#fe2501" opacity="1.00" d=" M 921.88 397.95 C 922.06 393.25 927.61 395.06 929.85 397.16 C 948.80 410.62 964.29 428.05 980.24 444.76 C 994.86 462.39 1018.31 477.58 1021.06 502.04 C 1019.41 505.24 1013.09 505.53 1012.96 509.88 C 1021.46 516.02 1031.69 519.06 1040.79 524.06 C 1039.95 532.06 1051.09 537.98 1045.93 546.99 C 1044.84 564.42 1040.01 583.27 1023.43 592.48 C 1013.57 599.92 1002.78 607.22 998.40 619.42 C 989.22 627.07 975.59 628.83 967.29 638.29 C 954.59 645.19 939.73 641.79 926.15 639.93 C 924.60 647.15 923.07 654.39 920.22 661.24 C 918.52 629.00 922.48 594.66 918.34 563.65 C 924.13 508.85 918.40 453.02 921.88 397.95 Z" />
<path fill="#fe2501" opacity="1.00" d=" M 87.18 510.03 C 116.91 525.68 145.55 543.45 175.63 558.39 C 177.06 559.34 178.51 560.25 179.96 561.17 C 181.35 562.19 182.71 563.25 184.11 564.28 C 184.58 564.61 185.51 565.29 185.98 565.63 C 226.43 591.29 268.51 615.42 310.86 637.20 C 388.28 682.02 466.03 726.29 544.36 769.58 C 547.23 771.16 550.74 772.85 553.90 770.92 C 612.75 737.77 671.42 704.13 730.62 671.58 C 749.95 658.52 771.96 649.76 790.27 635.28 C 790.55 635.05 791.11 634.59 791.39 634.36 C 795.25 631.73 796.11 625.97 801.98 626.85 C 828.10 612.19 850.28 593.62 875.87 577.89 C 887.21 574.38 898.71 569.18 910.28 567.58 C 908.51 570.09 905.71 572.34 907.01 576.02 C 908.42 625.23 908.23 674.53 907.72 723.78 C 907.61 728.25 905.24 732.35 900.97 734.03 C 791.14 795.37 681.83 857.64 572.01 919.02 C 563.33 922.42 554.20 930.40 544.33 926.69 C 493.60 901.98 445.42 872.33 395.92 845.25 C 395.92 839.81 383.41 837.23 389.97 834.77 C 385.28 827.98 375.13 824.14 368.26 818.76 C 358.36 813.45 355.07 800.98 344.56 796.53 C 337.01 792.40 330.80 784.46 321.46 785.38 C 317.95 782.59 313.82 780.11 311.74 776.00 C 315.34 770.99 326.55 777.41 324.80 769.30 C 316.25 760.53 308.57 750.48 295.84 748.27 C 296.82 742.05 290.08 738.87 286.93 734.05 C 282.65 724.80 269.22 723.20 269.22 711.89 C 262.09 708.40 256.76 701.79 248.78 700.25 C 244.03 692.64 247.60 684.03 243.56 676.00 C 248.16 670.42 235.40 667.60 240.91 662.67 C 238.04 659.20 232.36 660.37 229.39 656.67 C 208.47 652.65 192.15 633.05 169.29 637.98 C 165.19 641.32 166.73 645.80 170.89 649.36 C 159.24 644.20 171.02 652.96 171.64 657.58 C 164.36 653.41 170.49 664.62 171.81 668.90 C 163.46 665.99 172.43 677.34 172.03 680.98 C 184.45 691.06 192.85 709.33 185.78 724.95 C 183.24 722.85 175.03 720.24 179.67 727.43 C 182.35 739.21 184.54 751.60 192.80 761.03 C 200.87 776.40 218.00 782.16 231.28 791.80 C 188.12 771.42 147.04 746.66 105.01 723.98 C 99.94 721.99 95.07 716.92 89.25 718.97 C 83.01 706.75 64.58 704.19 53.61 695.46 C 40.12 686.92 27.25 673.79 25.98 657.03 C 26.03 625.67 25.98 594.32 26.01 562.96 C 25.02 547.91 37.79 537.47 49.37 530.35 C 60.60 522.03 73.87 517.21 86.11 510.73 C 86.38 510.56 86.91 510.20 87.18 510.03 Z" />
</g>
<g id="#f9cec6ff">
<path fill="#f9cec6" opacity="1.00" d=" M 790.36 434.67 C 792.14 501.11 790.03 567.83 791.39 634.36 C 791.11 634.59 790.55 635.05 790.27 635.28 C 789.22 568.63 790.17 501.49 790.36 434.67 Z" />
</g>
<g id="#fdb093ff">
<path fill="#fdb093" opacity="1.00" d=" M 184.11 564.28 C 189.08 529.32 183.67 490.22 186.79 453.77 C 186.60 491.03 188.21 528.44 185.98 565.63 C 185.51 565.29 184.58 564.61 184.11 564.28 Z" />
</g>
<g id="#e69a92ff">
<path fill="#e69a92" opacity="1.00" d=" M 309.35 471.68 C 310.68 493.09 310.34 514.79 309.21 536.24 C 308.91 514.72 308.74 493.19 309.35 471.68 Z" />
</g>
<g id="#f82901ff">
<path fill="#f82901" opacity="1.00" d=" M 1040.79 524.06 C 1052.69 530.93 1065.60 538.67 1070.85 552.12 C 1077.00 567.25 1072.80 584.11 1074.00 600.01 C 1073.92 619.67 1074.08 639.33 1073.97 659.00 C 1067.91 692.36 1029.70 698.20 1008.61 717.64 C 976.64 728.58 948.49 749.64 918.22 765.02 C 899.21 771.83 882.85 785.49 863.73 791.79 C 885.34 778.48 915.16 767.50 918.20 738.24 C 921.62 719.97 919.53 701.21 919.80 682.76 C 919.78 679.53 919.93 676.41 919.78 673.23 C 919.87 669.22 920.01 665.22 920.22 661.24 C 923.07 654.39 924.60 647.15 926.15 639.93 C 939.73 641.79 954.59 645.19 967.29 638.29 C 975.59 628.83 989.22 627.07 998.40 619.42 C 1002.78 607.22 1013.57 599.92 1023.43 592.48 C 1040.01 583.27 1044.84 564.42 1045.93 546.99 C 1051.09 537.98 1039.95 532.06 1040.79 524.06 Z" />
</g>
<g id="#fda27cff">
<path fill="#fda27c" opacity="1.00" d=" M 25.98 657.03 C 24.58 627.92 24.00 592.13 26.01 562.96 C 25.98 594.32 26.03 625.67 25.98 657.03 Z" />
</g>
<g id="#ef9e82ff">
<path fill="#ef9e82" opacity="1.00" d=" M 916.85 564.34 C 917.22 564.17 917.97 563.82 918.34 563.65 C 922.48 594.66 918.52 629.00 920.22 661.24 C 920.01 665.22 919.87 669.22 919.78 673.23 C 917.94 637.90 919.57 602.44 918.98 567.07 C 918.98 565.63 918.27 564.72 916.85 564.34 Z" />
</g>
<g id="#fef9f0ff">
</g>
<g id="#f0aaabff">
<path fill="#f0aaab" opacity="1.00" d=" M 1074.00 600.01 C 1075.20 617.10 1076.34 641.86 1073.97 659.00 C 1074.08 639.33 1073.92 619.67 1074.00 600.01 Z" />
</g>
<g id="#fe3001ff">
<path fill="#fe3001" opacity="1.00" d=" M 170.89 649.36 C 166.73 645.80 165.19 641.32 169.29 637.98 C 192.15 633.05 208.47 652.65 229.39 656.67 C 232.36 660.37 238.04 659.20 240.91 662.67 C 235.40 667.60 248.16 670.42 243.56 676.00 C 247.60 684.03 244.03 692.64 248.78 700.25 C 256.76 701.79 262.09 708.40 269.22 711.89 C 269.22 723.20 282.65 724.80 286.93 734.05 C 290.08 738.87 296.82 742.05 295.84 748.27 C 308.57 750.48 316.25 760.53 324.80 769.30 C 326.55 777.41 315.34 770.99 311.74 776.00 C 313.82 780.11 317.95 782.59 321.46 785.38 C 330.80 784.46 337.01 792.40 344.56 796.53 C 355.07 800.98 358.36 813.45 368.26 818.76 C 375.13 824.14 385.28 827.98 389.97 834.77 C 383.41 837.23 395.92 839.81 395.92 845.25 C 351.55 819.71 306.76 794.85 262.04 769.95 C 236.47 755.24 209.29 742.86 185.78 724.95 C 192.85 709.33 184.45 691.06 172.03 680.98 C 172.43 677.34 163.46 665.99 171.81 668.90 C 170.49 664.62 164.36 653.41 171.64 657.58 C 171.02 652.96 159.24 644.20 170.89 649.36 Z" />
</g>
<g id="#faa69cff">
<path fill="#faa69c" opacity="1.00" d=" M 918.20 738.24 C 917.92 719.74 918.94 701.22 919.80 682.76 C 919.53 701.21 921.62 719.97 918.20 738.24 Z" />
</g>
<g id="#ce1f00ff">
<path fill="#ce1f00" opacity="1.00" d=" M 89.25 718.97 C 95.07 716.92 99.94 721.99 105.01 723.98 C 147.04 746.66 188.12 771.42 231.28 791.80 C 262.59 808.55 292.66 827.63 324.11 844.09 C 329.36 847.07 334.63 850.05 339.90 853.02 C 346.22 856.81 352.17 861.44 359.12 864.05 C 417.47 896.37 474.75 931.02 534.76 960.18 C 543.66 963.42 554.26 964.92 563.25 961.28 C 575.59 957.18 586.38 949.63 598.03 944.00 C 654.93 912.01 712.04 880.25 768.76 847.90 C 802.06 836.16 833.49 816.30 864.53 798.40 C 882.57 787.65 903.84 781.00 918.22 765.02 C 948.49 749.64 976.64 728.58 1008.61 717.64 C 1028.38 725.16 1047.95 734.97 1063.62 749.34 C 1074.54 762.00 1075.01 779.12 1074.00 795.01 C 1073.98 816.35 1073.99 837.69 1074.01 859.04 C 1072.97 876.56 1061.23 891.99 1045.75 899.76 C 911.46 975.62 775.57 1048.69 640.95 1123.91 C 616.34 1136.72 592.59 1151.70 566.58 1161.54 C 540.30 1170.54 515.94 1153.47 493.34 1142.67 C 346.19 1062.54 199.91 980.81 53.30 899.72 C 40.16 891.65 27.67 879.02 25.96 863.02 C 26.04 831.66 25.99 800.30 25.99 768.94 C 26.83 754.87 38.33 744.33 50.01 738.03 C 62.44 730.52 75.02 722.54 89.25 718.97 Z" />
</g>
<g id="#fea472ff">
<path fill="#fea472" opacity="1.00" d=" M 192.80 761.03 C 196.84 764.03 199.48 768.48 203.54 771.49 C 242.14 798.22 285.78 817.13 324.11 844.09 C 292.66 827.63 262.59 808.55 231.28 791.80 C 218.00 782.16 200.87 776.40 192.80 761.03 Z" />
</g>
<g id="#dd1f08ff">
<path fill="#dd1f08" opacity="1.00" d=" M 863.73 791.79 C 882.85 785.49 899.21 771.83 918.22 765.02 C 903.84 781.00 882.57 787.65 864.53 798.40 C 833.49 816.30 802.06 836.16 768.76 847.90 C 800.25 828.93 832.33 810.94 863.73 791.79 Z" />
</g>
<g id="#fd7b5aff">
<path fill="#fd7b5a" opacity="1.00" d=" M 25.96 863.02 C 24.59 833.93 24.02 798.21 25.99 768.94 C 25.99 800.30 26.04 831.66 25.96 863.02 Z" />
</g>
<g id="#e09ea1ff">
<path fill="#e09ea1" opacity="1.00" d=" M 1074.00 795.01 C 1075.29 813.86 1076.20 839.99 1074.01 859.04 C 1073.99 837.69 1073.98 816.35 1074.00 795.01 Z" />
</g>
<g id="#e99b79ff">
<path fill="#e99b79" opacity="1.00" d=" M 339.90 853.02 C 346.85 855.56 353.68 858.95 359.12 864.05 C 352.17 861.44 346.22 856.81 339.90 853.02 Z" />
</g>
<g id="#e09993ff">
<path fill="#e09993" opacity="1.00" d=" M 534.76 960.18 C 544.25 960.91 553.69 962.78 563.25 961.28 C 554.26 964.92 543.66 963.42 534.76 960.18 Z" />
</g>
</svg>
